<svg width="73" height="20" viewBox="0 0 73 20" fill="none" xmlns="http://www.w3.org/2000/svg">
<path d="M0.543188 7.336V5.824C0.543188 5.152 0.623188 4.552 0.783188 4.024C0.943188 3.496 1.15919 3.064 1.43119 2.728C1.70319 2.392 2.03919 2.12 2.43919 1.912C2.85519 1.688 3.28719 1.536 3.73519 1.456C4.19919 1.36 4.71919 1.304 5.29519 1.288C6.51119 1.256 7.76719 1.312 9.06319 1.456C10.3592 1.6 11.3672 1.776 12.0872 1.984V4.624C10.2632 4.464 8.30319 4.384 6.20719 4.384C5.35919 4.368 4.75919 4.464 4.40719 4.672C4.07119 4.864 3.90319 5.336 3.90319 6.088V6.952C3.90319 7.624 4.03919 8.072 4.31119 8.296C4.58319 8.52 5.07119 8.632 5.77519 8.632H8.55919C8.97519 8.632 9.35919 8.672 9.71119 8.752C10.0792 8.832 10.3912 8.944 10.6472 9.088C10.9192 9.232 11.1592 9.4 11.3672 9.592C11.5912 9.784 11.7752 10 11.9192 10.24C12.0792 10.48 12.2072 10.728 12.3032 10.984C12.4152 11.224 12.4952 11.48 12.5432 11.752C12.6072 12.024 12.6472 12.288 12.6632 12.544C12.6952 12.784 12.7112 13.032 12.7112 13.288V14.464C12.7112 15.232 12.6152 15.904 12.4232 16.48C12.2312 17.056 11.9832 17.512 11.6792 17.848C11.3912 18.184 11.0232 18.456 10.5752 18.664C10.1432 18.872 9.71119 19.008 9.27919 19.072C8.84719 19.152 8.37519 19.192 7.86319 19.192C4.96719 19.192 2.70319 18.952 1.07119 18.472V15.832C2.83119 16.008 4.87119 16.096 7.19119 16.096C7.49519 16.096 7.75119 16.08 7.95919 16.048C8.18319 16.016 8.40719 15.952 8.63119 15.856C8.87119 15.76 9.04719 15.608 9.15919 15.4C9.28719 15.176 9.35119 14.904 9.35119 14.584V13.648C9.35119 13.088 9.23919 12.672 9.01519 12.4C8.79119 12.128 8.37519 11.992 7.76719 11.992H5.07919C2.05519 11.976 0.543188 10.424 0.543188 7.336ZM14.6034 19V0.231998H17.9634V10.528H18.6594L22.2594 6.256H26.5314L21.7554 11.8L26.5314 19H22.5234L18.6594 13.096H17.9634V19H14.6034ZM27.7708 12.808C27.7708 11.496 27.8668 10.416 28.0588 9.568C28.2508 8.72 28.5868 8.04 29.0668 7.528C29.5468 7.016 30.1388 6.656 30.8428 6.448C31.5628 6.24 32.4748 6.136 33.5788 6.136C35.7708 6.136 37.2828 6.616 38.1148 7.576C38.9628 8.536 39.3868 10.28 39.3868 12.808C39.3868 15.192 38.9708 16.84 38.1388 17.752C37.3228 18.664 35.8028 19.12 33.5788 19.12C32.6988 19.12 31.9308 19.048 31.2748 18.904C30.6348 18.744 30.0828 18.512 29.6188 18.208C29.1708 17.904 28.8108 17.504 28.5388 17.008C28.2668 16.496 28.0668 15.904 27.9388 15.232C27.8268 14.544 27.7708 13.736 27.7708 12.808ZM31.1308 12.808C31.1308 13.624 31.1708 14.272 31.2508 14.752C31.3308 15.232 31.4748 15.6 31.6828 15.856C31.9068 16.096 32.1548 16.248 32.4268 16.312C32.6988 16.376 33.0828 16.408 33.5788 16.408C34.0108 16.408 34.3388 16.392 34.5628 16.36C34.8028 16.328 35.0268 16.248 35.2348 16.12C35.4588 15.992 35.6188 15.792 35.7148 15.52C35.8268 15.248 35.9068 14.904 35.9548 14.488C36.0028 14.056 36.0268 13.496 36.0268 12.808C36.0268 12.072 36.0028 11.48 35.9548 11.032C35.9228 10.568 35.8588 10.184 35.7628 9.88C35.6668 9.56 35.5148 9.336 35.3068 9.208C35.0988 9.064 34.8668 8.968 34.6108 8.92C34.3548 8.856 34.0108 8.824 33.5788 8.824C33.2268 8.824 32.9388 8.84 32.7148 8.872C32.4908 8.904 32.2748 8.976 32.0668 9.088C31.8588 9.184 31.6988 9.32 31.5868 9.496C31.4908 9.656 31.4028 9.888 31.3228 10.192C31.2428 10.496 31.1868 10.856 31.1548 11.272C31.1388 11.688 31.1308 12.2 31.1308 12.808ZM41.2005 12.808C41.2005 11.496 41.2965 10.416 41.4885 9.568C41.6805 8.72 42.0165 8.04 42.4965 7.528C42.9765 7.016 43.5685 6.656 44.2725 6.448C44.9925 6.24 45.9045 6.136 47.0085 6.136C49.2005 6.136 50.7125 6.616 51.5445 7.576C52.3925 8.536 52.8165 10.28 52.8165 12.808C52.8165 15.192 52.4005 16.84 51.5685 17.752C50.7525 18.664 49.2325 19.12 47.0085 19.12C46.1285 19.12 45.3605 19.048 44.7045 18.904C44.0645 18.744 43.5125 18.512 43.0485 18.208C42.6005 17.904 42.2405 17.504 41.9685 17.008C41.6965 16.496 41.4965 15.904 41.3685 15.232C41.2565 14.544 41.2005 13.736 41.2005 12.808ZM44.5605 12.808C44.5605 13.624 44.6005 14.272 44.6805 14.752C44.7605 15.232 44.9045 15.6 45.1125 15.856C45.3365 16.096 45.5845 16.248 45.8565 16.312C46.1285 16.376 46.5125 16.408 47.0085 16.408C47.4405 16.408 47.7685 16.392 47.9925 16.36C48.2325 16.328 48.4565 16.248 48.6645 16.12C48.8885 15.992 49.0485 15.792 49.1445 15.52C49.2565 15.248 49.3365 14.904 49.3845 14.488C49.4325 14.056 49.4565 13.496 49.4565 12.808C49.4565 12.072 49.4325 11.48 49.3845 11.032C49.3525 10.568 49.2885 10.184 49.1925 9.88C49.0965 9.56 48.9445 9.336 48.7365 9.208C48.5285 9.064 48.2965 8.968 48.0405 8.92C47.7845 8.856 47.4405 8.824 47.0085 8.824C46.6565 8.824 46.3685 8.84 46.1445 8.872C45.9205 8.904 45.7045 8.976 45.4965 9.088C45.2885 9.184 45.1285 9.32 45.0165 9.496C44.9205 9.656 44.8325 9.888 44.7525 10.192C44.6725 10.496 44.6165 10.856 44.5845 11.272C44.5685 11.688 44.5605 12.2 44.5605 12.808ZM54.8222 14.464V0.207999H58.1822V13.936C58.1822 14.784 58.2702 15.376 58.4462 15.712C58.6222 16.048 58.9022 16.288 59.2862 16.432C60.2462 16.768 60.7822 16.936 60.8942 16.936V19H58.1102C57.5822 19 57.1182 18.92 56.7182 18.76C56.3182 18.6 55.9742 18.352 55.6862 18.016C55.3982 17.664 55.1822 17.192 55.0382 16.6C54.8942 16.008 54.8222 15.296 54.8222 14.464ZM61.7936 9.088V6.256H72.0896V9.088L66.6176 16.144H72.0896V18.976H62.1536V16.168L67.8656 9.088H61.7936Z" fill="#292D32"/>
</svg>
