<svg width="24" height="24" viewBox="0 0 24 24" fill="none" xmlns="http://www.w3.org/2000/svg">
<path d="M12 4.5C11.586 4.5 11.25 4.164 11.25 3.75V3C11.25 2.586 11.586 2.25 12 2.25C12.414 2.25 12.75 2.586 12.75 3V3.75C12.75 4.164 12.414 4.5 12 4.5Z" stroke="#292D32" stroke-width="8"/>
<mask id="path-2-inside-1_1672_234" fill="white">
<path d="M18.5452 11.0456C18.1312 11.0456 17.7952 10.7096 17.7952 10.2956C17.7952 7.24762 15.3202 4.65037 12.2782 4.50637C9.23247 4.36575 6.5171 6.71137 6.23022 9.74175C6.21297 9.92287 6.20435 10.1089 6.20435 10.2956C6.20435 10.7096 5.86835 11.0456 5.45435 11.0456C5.04035 11.0456 4.70435 10.7096 4.70435 10.2956C4.70435 10.0616 4.71522 9.82762 4.73697 9.60037C5.0981 5.78437 8.51697 2.82787 12.3491 3.00825C16.1793 3.18937 19.2952 6.45862 19.2952 10.2956C19.2952 10.71 18.9592 11.0456 18.5452 11.0456Z"/>
</mask>
<path d="M12.2782 4.50637L12.6565 -3.48469L12.6472 -3.48512L12.2782 4.50637ZM6.23022 9.74175L14.1942 10.5002L14.1946 10.4957L6.23022 9.74175ZM4.73697 9.60037L12.7006 10.3626L12.7014 10.3541L4.73697 9.60037ZM12.3491 3.00825L12.727 -4.98282L12.7252 -4.98291L12.3491 3.00825ZM18.5452 3.04562C22.5495 3.04562 25.7952 6.29134 25.7952 10.2956H9.79522C9.79522 15.1279 13.7129 19.0456 18.5452 19.0456V3.04562ZM25.7952 10.2956C25.7952 2.98276 19.9713 -3.13842 12.6565 -3.48468L11.8999 12.4974C11.2243 12.4654 10.7056 12.1663 10.386 11.831C10.0666 11.4957 9.79522 10.9662 9.79522 10.2956H25.7952ZM12.6472 -3.48512C5.36649 -3.82127 -1.04232 1.67949 -1.73417 8.98778L14.1946 10.4957C14.1301 11.1767 13.8026 11.6833 13.4536 11.9852C13.1054 12.2864 12.5701 12.5284 11.9092 12.4979L12.6472 -3.48512ZM-1.73374 8.98327C-1.77589 9.42578 -1.79565 9.8651 -1.79565 10.2956H14.2043C14.2043 10.3526 14.2018 10.42 14.1942 10.5002L-1.73374 8.98327ZM-1.79565 10.2956C-1.79565 6.29134 1.45007 3.04562 5.45435 3.04562V19.0456C10.2866 19.0456 14.2043 15.1279 14.2043 10.2956H-1.79565ZM5.45435 3.04562C9.45862 3.04562 12.7043 6.29134 12.7043 10.2956H-3.29565C-3.29565 15.1279 0.622068 19.0456 5.45435 19.0456V3.04562ZM12.7043 10.2956C12.7043 10.3021 12.7042 10.3099 12.7038 10.3195C12.7033 10.3292 12.7024 10.3433 12.7006 10.3626L-3.22664 8.83818C-3.27357 9.32858 -3.29565 9.81717 -3.29565 10.2956H12.7043ZM12.7014 10.3541C12.6742 10.641 12.5422 10.7981 12.4772 10.8543C12.4128 10.9101 12.2469 11.0123 11.973 10.9994L12.7252 -4.98291C4.64455 -5.36326 -2.46224 0.760712 -3.22745 8.84666L12.7014 10.3541ZM11.9712 10.9993C11.6902 10.986 11.5287 10.8647 11.4676 10.8005C11.4065 10.7365 11.2952 10.5719 11.2952 10.2956H27.2952C27.2952 2.19254 20.8291 -4.59969 12.727 -4.98282L11.9712 10.9993ZM11.2952 10.2956C11.2952 6.28911 14.5435 3.04562 18.5452 3.04562V19.0456C23.3749 19.0456 27.2952 15.1309 27.2952 10.2956H11.2952Z" fill="#292D32" mask="url(#path-2-inside-1_1672_234)"/>
<path d="M17.8545 12.928C18.0683 12.7473 18.3008 12.5983 18.5449 12.4812C18.786 12.3655 19.0386 12.2811 19.2958 12.228C19.3125 12.9567 19.5441 13.6652 19.9511 14.2614C20.0844 14.4567 20.2366 14.6399 20.4062 14.8079C20.2626 14.9084 20.1105 14.9976 19.9511 15.0742C19.8718 15.1123 19.7907 15.1473 19.708 15.179L18.5449 14.0748L17.9871 13.5454C17.9307 13.3428 17.8863 13.1366 17.8545 12.928ZM18.5449 14.0828L19.7056 15.1799C19.453 15.2765 19.1852 15.3425 18.9069 15.3733C18.7753 15.2043 18.6545 15.0277 18.5449 14.8446C18.3043 14.4428 18.1178 14.0101 17.991 13.5593L18.5449 14.0828Z" fill="#292D32" stroke="#292D32" stroke-width="8"/>
<path d="M4.70342 12.2281C4.96015 12.2811 5.21279 12.3655 5.4544 12.4813C5.69814 12.5982 5.93065 12.747 6.14481 12.9279C6.11252 13.1398 6.06732 13.349 6.00974 13.5545C6.0092 13.5564 6.00867 13.5584 6.00813 13.5603C5.8813 14.011 5.69487 14.4435 5.4544 14.8451C5.34485 15.028 5.22409 15.2045 5.09264 15.3733C4.8142 15.3425 4.54637 15.2765 4.29369 15.1799C4.29336 15.1798 4.29303 15.1797 4.29269 15.1795C4.20948 15.1477 4.12791 15.1125 4.04815 15.0742C3.88881 14.9976 3.73668 14.9084 3.59306 14.8079C3.76265 14.6399 3.91481 14.4567 4.04815 14.2614C4.45511 13.6653 4.6867 12.957 4.70342 12.2281Z" fill="#292D32" stroke="#292D32" stroke-width="8"/>
<mask id="path-6-inside-2_1672_234" fill="white">
<path d="M12 21.75C9.9675 21.75 8.25 20.0325 8.25 18C8.25 17.586 8.586 17.25 9 17.25C9.414 17.25 9.75 17.586 9.75 18C9.75 19.2195 10.7805 20.25 12 20.25C13.2195 20.25 14.25 19.2195 14.25 18C14.25 17.586 14.586 17.25 15 17.25C15.414 17.25 15.75 17.586 15.75 18C15.75 20.0325 14.0325 21.75 12 21.75Z"/>
</mask>
<path d="M12 21.75C9.9675 21.75 8.25 20.0325 8.25 18C8.25 17.586 8.586 17.25 9 17.25C9.414 17.25 9.75 17.586 9.75 18C9.75 19.2195 10.7805 20.25 12 20.25C13.2195 20.25 14.25 19.2195 14.25 18C14.25 17.586 14.586 17.25 15 17.25C15.414 17.25 15.75 17.586 15.75 18C15.75 20.0325 14.0325 21.75 12 21.75Z" fill="#292D32"/>
<path d="M12 13.75C14.3858 13.75 16.25 15.6142 16.25 18H0.25C0.25 24.4508 5.54922 29.75 12 29.75V13.75ZM16.25 18C16.25 22.0043 13.0043 25.25 9 25.25V9.25C4.16772 9.25 0.25 13.1677 0.25 18H16.25ZM9 25.25C4.99572 25.25 1.75 22.0043 1.75 18H17.75C17.75 13.1677 13.8323 9.25 9 9.25V25.25ZM1.75 18C1.75 23.6378 6.36222 28.25 12 28.25V12.25C15.1988 12.25 17.75 14.8012 17.75 18H1.75ZM12 28.25C17.6378 28.25 22.25 23.6378 22.25 18H6.25C6.25 14.8012 8.80122 12.25 12 12.25V28.25ZM22.25 18C22.25 22.0043 19.0043 25.25 15 25.25V9.25C10.1677 9.25 6.25 13.1677 6.25 18H22.25ZM15 25.25C10.9957 25.25 7.75 22.0043 7.75 18H23.75C23.75 13.1677 19.8323 9.25 15 9.25V25.25ZM7.75 18C7.75 15.6142 9.61422 13.75 12 13.75V29.75C18.4508 29.75 23.75 24.4508 23.75 18H7.75Z" fill="#292D32" mask="url(#path-6-inside-2_1672_234)"/>
<path d="M5.07899 18.75C4.16512 18.75 3.35212 18.1912 3.00749 17.3265C2.66249 16.4606 2.86837 15.495 3.53212 14.8665C3.83287 14.5815 4.30724 14.5946 4.59262 14.8954C4.87724 15.1961 4.86449 15.6709 4.56374 15.9559C4.23524 16.2671 4.35599 16.659 4.40099 16.7715C4.44562 16.8832 4.62674 17.25 5.07899 17.25C5.49299 17.25 5.82899 17.586 5.82899 18C5.82899 18.414 5.49337 18.75 5.07899 18.75Z" fill="#292D32"/>
<path d="M18.9202 18.75C18.5062 18.75 18.1702 18.414 18.1702 18C18.1702 17.586 18.5062 17.25 18.9202 17.25C19.3729 17.25 19.5544 16.8817 19.5994 16.7689C19.644 16.6567 19.7644 16.2664 19.4359 15.9555C19.1351 15.6705 19.122 15.1961 19.4066 14.895C19.6916 14.5942 20.166 14.5811 20.4671 14.8657C21.1309 15.4942 21.3371 16.4591 20.9929 17.3235C20.6479 18.1901 19.8341 18.75 18.9202 18.75Z" fill="#292D32"/>
<path d="M5.45398 12.8929C5.03998 12.8929 4.70398 12.5569 4.70398 12.1429V10.2956C4.70398 9.88162 5.03998 9.54562 5.45398 9.54562C5.86798 9.54562 6.20398 9.88162 6.20398 10.2956V12.1429C6.20398 12.5569 5.86835 12.8929 5.45398 12.8929Z" fill="#292D32"/>
<path d="M18.5452 12.8929C18.1312 12.8929 17.7952 12.5569 17.7952 12.1429V10.2956C17.7952 9.88162 18.1312 9.54562 18.5452 9.54562C18.9592 9.54562 19.2952 9.88162 19.2952 10.2956V12.1429C19.2952 12.5569 18.9592 12.8929 18.5452 12.8929Z" fill="#292D32"/>
<path d="M18.9202 18.75H5.07898C4.66498 18.75 4.32898 18.414 4.32898 18C4.32898 17.586 4.66498 17.25 5.07898 17.25H18.9199C19.3339 17.25 19.6699 17.586 19.6699 18C19.6699 18.414 19.3342 18.75 18.9202 18.75Z" fill="#292D32"/>
</svg>
