<svg width="234" height="233" viewBox="0 0 234 233" fill="none" xmlns="http://www.w3.org/2000/svg">
<path d="M9.37217 125.267L69.7859 50.1895L93.9063 59.8527L85.773 155.875L69.1383 149.211L76.077 64.4305L79.1663 65.6682L26.0069 131.931L9.37217 125.267ZM32.1966 113.728L38.2421 98.6375L83.3935 116.726L77.348 131.816L32.1966 113.728Z" fill="white"/>
<path d="M80.2303 212.877L63.3254 170.01L91.3082 158.975L94.29 166.536L74.4044 174.378L78.0202 183.547L94.3335 177.113L97.3153 184.675L81.002 191.108L85.3456 202.122L105.231 194.281L108.213 201.842L80.2303 212.877Z" fill="white"/>
<path d="M101.315 159.405C99.7074 160.038 98.1815 160.236 96.7372 159.997C95.3003 159.756 94.0176 159.131 92.889 158.122C91.7679 157.111 90.8786 155.772 90.2212 154.105C89.5638 152.438 89.2997 150.852 89.4288 149.348C89.5654 147.841 90.0763 146.508 90.9614 145.351C91.8539 144.191 93.104 143.293 94.7115 142.66C96.5572 141.932 98.2856 141.779 99.8969 142.201C101.516 142.621 102.89 143.511 104.02 144.871L101.296 146.926C100.613 146.068 99.8132 145.511 98.8949 145.254C97.9736 144.989 96.9548 145.077 95.8385 145.517C94.8189 145.919 94.0563 146.482 93.5506 147.206C93.0524 147.928 92.795 148.769 92.7784 149.73C92.7619 150.691 92.9737 151.729 93.4139 152.846C93.8542 153.962 94.4083 154.866 95.0764 155.557C95.7446 156.248 96.5067 156.687 97.363 156.874C98.2267 157.058 99.1684 156.949 100.188 156.547C101.304 156.107 102.109 155.475 102.602 154.653C103.094 153.831 103.299 152.878 103.215 151.793L106.608 151.435C106.711 153.2 106.314 154.789 105.417 156.2C104.528 157.609 103.161 158.677 101.315 159.405Z" fill="white"/>
<path d="M140.319 162.707L129.357 71.2013L165.96 66.8167C172.484 66.0352 177.915 66.7167 182.254 68.8611C186.589 70.9632 189.924 73.8725 192.26 77.5891C194.596 81.3056 196.005 85.1762 196.487 89.2007C197.101 94.3268 196.446 98.7239 194.522 102.392C192.64 106.055 189.755 108.7 185.868 110.326L185.487 107.148C191.348 107.65 195.944 109.785 199.275 113.554C202.648 117.318 204.639 121.742 205.248 126.826C205.903 132.291 205.462 137.221 203.926 141.616C202.432 146.006 199.773 149.634 195.947 152.498C192.117 155.32 187.088 157.105 180.861 157.851L140.319 162.707ZM155.909 144.338L177.133 141.796C179.463 141.517 181.48 140.781 183.185 139.588C184.885 138.354 186.137 136.786 186.941 134.884C187.781 132.936 188.055 130.733 187.76 128.276C187.502 126.115 186.826 124.241 185.733 122.653C184.641 121.065 183.125 119.893 181.187 119.137C179.286 118.333 177.001 118.092 174.332 118.411L153.107 120.954L155.909 144.338ZM151.174 104.813L169.983 102.56C171.932 102.326 173.629 101.779 175.072 100.919C176.516 100.058 177.599 98.8759 178.322 97.3713C179.039 95.8244 179.263 93.9283 178.994 91.683C178.659 88.887 177.509 86.6398 175.543 84.9415C173.578 83.2432 170.943 82.592 167.639 82.9878L148.829 85.241L151.174 104.813Z" fill="white"/>
</svg>
