<svg width="234" height="233" viewBox="0 0 234 233" fill="none" xmlns="http://www.w3.org/2000/svg">
<path d="M9.37217 125.267L69.7859 50.1895L93.9063 59.8527L85.773 155.875L69.1383 149.211L76.077 64.4305L79.1663 65.6682L26.0069 131.931L9.37217 125.267ZM32.1966 113.728L38.2421 98.6375L83.3935 116.726L77.348 131.816L32.1966 113.728Z" fill="white"/>
<path d="M79.3001 213.244L62.3953 170.377L79.5421 163.615C82.5984 162.409 85.3118 162.05 87.6824 162.537C90.0452 163.004 92.0271 163.989 93.6282 165.49C95.2292 166.991 96.4015 168.685 97.145 170.57C98.092 172.971 98.3328 175.181 97.8674 177.199C97.4218 179.209 96.362 180.854 94.6879 182.134L94.101 180.645C96.9993 180.144 99.4929 180.594 101.582 181.995C103.69 183.388 105.214 185.275 106.153 187.656C107.163 190.217 107.575 192.657 107.389 194.977C107.224 197.29 106.397 199.382 104.911 201.252C103.416 203.103 101.21 204.604 98.2926 205.754L79.3001 213.244ZM84.511 202.383L94.4538 198.462C95.5453 198.031 96.4278 197.42 97.1011 196.627C97.7667 195.814 98.1732 194.897 98.3208 193.875C98.4805 192.826 98.3333 191.726 97.8794 190.575C97.4802 189.563 96.9158 188.742 96.1859 188.113C95.4561 187.483 94.5745 187.109 93.5411 186.989C92.5198 186.841 91.384 187.014 90.1337 187.507L80.1909 191.428L84.511 202.383ZM77.2091 183.867L86.0206 180.392C86.9335 180.032 87.6846 179.552 88.2739 178.953C88.8631 178.354 89.2369 177.644 89.3954 176.825C89.5461 175.986 89.4141 175.04 88.9993 173.989C88.4827 172.679 87.6415 171.738 86.4757 171.166C85.3098 170.593 83.9529 170.612 82.4049 171.223L73.5933 174.698L77.2091 183.867Z" fill="white"/>
<path d="M107.433 156.605L104.396 157.802L102.248 152.355L98.4973 153.834L97.1225 154.273C95.6055 154.613 94.3243 154.439 93.2789 153.751C92.2305 153.055 91.4407 152.033 90.9094 150.686C90.5543 149.786 90.3781 148.913 90.3807 148.07C90.3879 147.216 90.6012 146.426 91.0207 145.702C91.4402 144.977 92.1006 144.352 93.0019 143.824C93.2031 143.702 93.4324 143.585 93.69 143.475C93.9446 143.358 94.15 143.268 94.3063 143.206L101.094 140.53L107.433 156.605ZM98.3683 160.18L94.93 161.536L95.5955 153.018L98.9589 152.388L98.3683 160.18ZM101.13 149.519L99.1754 144.563L95.5585 145.989C95.4022 146.051 95.2339 146.126 95.0537 146.214C94.8736 146.302 94.7141 146.399 94.5755 146.506C94.2102 146.779 93.9687 147.093 93.8511 147.449C93.7305 147.798 93.6902 148.153 93.73 148.516C93.7743 148.868 93.8537 149.19 93.9682 149.48C94.0827 149.77 94.2454 150.063 94.4564 150.358C94.6719 150.643 94.9441 150.875 95.273 151.055C95.599 151.227 95.9887 151.289 96.442 151.239C96.6159 151.222 96.7988 151.184 96.9908 151.126C97.1827 151.067 97.3568 151.007 97.5131 150.946L101.13 149.519Z" fill="white"/>
<path d="M139.45 162.811L128.488 71.3054L191.271 63.7846L193.205 79.9252L147.706 85.3755L149.792 102.787L171.143 100.229C171.991 100.128 173.182 100.028 174.717 99.9302C176.247 99.7898 177.613 99.7122 178.814 99.6972C184.133 99.6186 188.692 100.727 192.491 103.022C196.327 105.27 199.362 108.365 201.596 112.309C203.868 116.205 205.295 120.589 205.879 125.461C206.462 130.333 206.134 134.949 204.895 139.308C203.65 143.626 201.432 147.351 198.241 150.483C195.087 153.568 190.895 155.703 185.665 156.888C184.494 157.157 183.151 157.426 181.636 157.693C180.159 157.913 178.975 158.076 178.086 158.183L139.45 162.811ZM154.801 144.6L175.39 142.134C176.279 142.027 177.248 141.868 178.297 141.657C179.346 141.445 180.305 141.201 181.175 140.925C184.6 139.741 186.734 137.831 187.579 135.195C188.465 132.553 188.762 130.004 188.467 127.547C188.168 125.047 187.278 122.64 185.797 120.325C184.354 117.963 181.829 116.611 178.221 116.269C177.306 116.164 176.317 116.154 175.253 116.238C174.183 116.28 173.204 116.355 172.314 116.461L151.725 118.928L154.801 144.6Z" fill="white"/>
</svg>
