<svg width="234" height="218" viewBox="0 0 234 218" fill="none" xmlns="http://www.w3.org/2000/svg">
<path d="M48.2432 107.225L56.4783 86.6688L35.9226 78.4336L40.9208 65.9576L61.4765 74.1927L69.6641 53.7558L82.1401 58.754L73.9526 79.191L94.3895 87.3785L89.3913 99.8545L68.9544 91.667L60.7192 112.223L48.2432 107.225Z" fill="white"/>
<path d="M79.0742 198.264L76.3037 191.239L87.9917 168.192C88.8716 166.469 89.3821 164.972 89.523 163.701C89.6639 162.43 89.5543 161.338 89.1943 160.425C88.6777 159.115 87.952 158.06 87.017 157.259C86.0742 156.438 85.0031 155.932 83.8037 155.74C82.5964 155.528 81.3379 155.681 80.0281 156.197C78.6587 156.737 77.5733 157.532 76.7719 158.582C75.9826 159.604 75.5036 160.745 75.335 162.004C75.1586 163.243 75.3251 164.45 75.8344 165.625L67.4991 168.912C66.3408 165.975 65.984 163.18 66.4287 160.528C66.8735 157.876 68.016 155.511 69.8564 153.432C71.6968 151.353 74.1451 149.711 77.2014 148.506C79.9997 147.402 82.7429 147.031 85.431 147.393C88.1311 147.727 90.5467 148.735 92.6778 150.417C94.8088 152.1 96.4417 154.38 97.5765 157.257C98.4139 159.381 98.8128 161.264 98.7731 162.908C98.7255 164.532 98.3511 166.17 97.6498 167.823C96.9406 169.456 96.0262 171.353 94.9064 173.514L87.3114 188.274L85.9521 186.746L106.076 178.81L109.081 186.431L79.0742 198.264Z" fill="white"/>
<path d="M95.8857 146.133L94.8467 143.498L99.2297 134.856C99.5597 134.21 99.7511 133.648 99.804 133.172C99.8568 132.695 99.8157 132.286 99.6807 131.943C99.487 131.452 99.2149 131.056 98.8642 130.756C98.5107 130.448 98.109 130.258 97.6592 130.186C97.2065 130.107 96.7346 130.164 96.2434 130.358C95.7299 130.56 95.3229 130.858 95.0223 131.252C94.7263 131.635 94.5467 132.063 94.4835 132.535C94.4173 133 94.4798 133.453 94.6707 133.893L91.545 135.126C91.1106 134.024 90.9769 132.976 91.1436 131.982C91.3104 130.987 91.7389 130.1 92.429 129.321C93.1192 128.541 94.0373 127.926 95.1834 127.474C96.2327 127.06 97.2614 126.921 98.2695 127.056C99.282 127.182 100.188 127.56 100.987 128.19C101.786 128.821 102.398 129.676 102.824 130.755C103.138 131.552 103.288 132.258 103.273 132.875C103.255 133.484 103.115 134.098 102.852 134.718C102.586 135.33 102.243 136.041 101.823 136.852L98.9746 142.387L98.4649 141.814L106.011 138.838L107.138 141.695L95.8857 146.133Z" fill="white"/>
<path d="M137.544 148.04L124.735 137.972L195.211 48.3126L208.035 58.5078L137.544 148.04ZM198.776 142.638C194.582 143.141 190.626 142.583 186.909 140.966C183.229 139.301 180.145 136.877 177.658 133.695C175.166 130.469 173.666 126.739 173.159 122.502C172.662 118.351 173.264 114.411 174.966 110.683C176.668 106.956 179.132 103.846 182.357 101.354C185.582 98.8621 189.228 97.3726 193.295 96.8854C197.489 96.383 201.447 96.9616 205.17 98.6213C208.887 100.239 211.971 102.662 214.42 105.893C216.907 109.075 218.404 112.785 218.912 117.021C219.419 121.258 218.843 125.237 217.184 128.96C215.561 132.635 213.137 135.718 209.912 138.21C206.682 140.66 202.97 142.136 198.776 142.638ZM197.025 128.023C198.508 127.845 199.818 127.301 200.955 126.392C202.134 125.477 203.032 124.36 203.647 123.04C204.258 121.677 204.474 120.255 204.296 118.772C204.119 117.29 203.575 115.98 202.665 114.842C201.751 113.663 200.612 112.768 199.25 112.158C197.93 111.542 196.529 111.323 195.046 111.501C193.563 111.679 192.232 112.225 191.052 113.139C189.915 114.049 189.041 115.185 188.431 116.547C187.816 117.867 187.597 119.269 187.774 120.751C187.952 122.234 188.498 123.565 189.413 124.745C190.323 125.882 191.438 126.758 192.758 127.374C194.12 127.984 195.542 128.2 197.025 128.023ZM139.46 99.4668C135.266 99.9693 131.31 99.4118 127.593 97.7945C123.87 96.1348 120.766 93.7135 118.279 90.5307C115.829 87.3005 114.351 83.5672 113.843 79.3308C113.346 75.1791 113.948 71.2395 115.65 67.5119C117.352 63.7844 119.816 60.6746 123.041 58.1826C126.266 55.6907 129.912 54.2011 133.979 53.7139C138.173 53.2115 142.11 53.7927 145.79 55.4575C149.508 57.0748 152.613 59.4961 155.104 62.7212C157.591 65.904 159.089 69.6136 159.596 73.85C160.103 78.0864 159.527 82.0658 157.868 85.7883C156.203 89.4685 153.758 92.5545 150.533 95.0465C147.345 97.491 143.654 98.9644 139.46 99.4668ZM137.709 84.8513C139.192 84.6737 140.502 84.1301 141.639 83.2203C142.819 82.3055 143.716 81.1882 144.331 79.8683C144.942 78.506 145.158 77.0836 144.98 75.6008C144.803 74.1181 144.259 72.8081 143.349 71.6709C142.435 70.4913 141.296 69.5964 139.934 68.9861C138.614 68.3707 137.213 68.1518 135.73 68.3295C134.247 68.5071 132.916 69.0533 131.737 69.9681C130.599 70.8778 129.726 72.0138 129.115 73.376C128.5 74.6959 128.281 76.0972 128.459 77.58C128.636 79.0627 129.182 80.3939 130.097 81.5734C131.007 82.7106 132.122 83.5869 133.442 84.2023C134.804 84.8126 136.226 85.029 137.709 84.8513Z" fill="white"/>
</svg>
