<svg width="26" height="26" viewBox="0 0 26 26" fill="none" xmlns="http://www.w3.org/2000/svg">
<path d="M6.58667 13.4115C6.63823 13.5444 6.71554 13.6659 6.81417 13.769L12.2308 19.1856C12.3318 19.2866 12.4518 19.3668 12.5837 19.4214C12.7157 19.4761 12.8572 19.5042 13 19.5042C13.2885 19.5042 13.5652 19.3896 13.7692 19.1856C13.8702 19.0846 13.9503 18.9647 14.005 18.8327C14.0596 18.7008 14.0878 18.5593 14.0878 18.4165C14.0878 18.128 13.9732 17.8513 13.7692 17.6473L10.1942 14.0831L18.4167 14.0831C18.704 14.0831 18.9795 13.969 19.1827 13.7658C19.3859 13.5627 19.5 13.2871 19.5 12.9998C19.5 12.7125 19.3859 12.4369 19.1827 12.2338C18.9795 12.0306 18.704 11.9165 18.4167 11.9165L10.1942 11.9165L13.7692 8.35229C13.8707 8.25158 13.9513 8.13177 14.0063 7.99975C14.0613 7.86774 14.0896 7.72614 14.0896 7.58313C14.0896 7.44012 14.0613 7.29852 14.0063 7.1665C13.9513 7.03449 13.8707 6.91467 13.7692 6.81396C13.6685 6.71242 13.5486 6.63183 13.4166 6.57683C13.2846 6.52183 13.143 6.49351 13 6.49351C12.857 6.49351 12.7154 6.52183 12.5834 6.57683C12.4514 6.63183 12.3315 6.71242 12.2308 6.81396L6.81417 12.2306C6.71554 12.3337 6.63823 12.4551 6.58667 12.5881C6.47832 12.8519 6.47832 13.1477 6.58667 13.4115Z" fill="#9BB5CC"/>
</svg>
