<svg width="24" height="24" viewBox="0 0 24 24" fill="none" xmlns="http://www.w3.org/2000/svg">
<path d="M18 21H16V18C16 17.45 15.55 17 15 17H6C5.45 17 5 17.45 5 18V21H3C2.45 21 2 21.45 2 22C2 22.55 2.45 23 3 23H6H15H18C18.55 23 19 22.55 19 22C19 21.45 18.55 21 18 21ZM7 21V19H14V21H7Z" fill="#FFE600"/>
<path fill-rule="evenodd" clip-rule="evenodd" d="M20 5C20 4.45 20.45 4 21 4C21.55 4 22 4.45 22 5V10C22 10.55 21.55 11 21 11C20.45 11 20 10.55 20 10H15V12C15.55 12 16 12.45 16 13C16 13.55 15.55 14 15 14H14.03C14.025 14 14.02 14.0025 14.015 14.005C14.01 14.0075 14.005 14.01 14 14.01H7C6.995 14.01 6.99 14.0075 6.985 14.005C6.98 14.0025 6.975 14 6.97 14H6C5.45 14 5 13.55 5 13C5 12.45 5.45 12 6 12V3C5.45 3 5 2.55 5 2C5 1.45 5.45 1 6 1H15C15.55 1 16 1.45 16 2C16 2.55 15.55 3 15 3V5H20ZM8 3V12H13V3H8ZM15 7V8H20V7H15Z" fill="#FFE600"/>
</svg>
