<svg width="18" height="18" viewBox="0 0 18 18" fill="none" xmlns="http://www.w3.org/2000/svg">
<g clip-path="url(#clip0_794_2998)">
<path d="M15.4306 2.79548C15.4306 3.65031 14.735 4.3459 13.8802 4.3459H13.0345C12.1797 4.3459 11.4841 3.65031 11.4841 2.79548V2.3374H6.51573V2.79548C6.51573 3.65031 5.82014 4.3459 4.96531 4.3459H4.11962C3.26479 4.3459 2.5692 3.65031 2.5692 2.79548V2.3374H0.0498047V18.0001H17.95V2.3374H15.4306V2.79548ZM16.5406 16.6611H1.45928V5.94914H16.5406V16.6611Z" fill="#9BB5CC"/>
<path d="M4.11962 0C3.65252 0 3.27393 0.378599 3.27393 0.845694V2.79541C3.27393 3.2625 3.6525 3.6411 4.11962 3.6411H4.96531C5.43241 3.6411 5.81101 3.26253 5.81101 2.79541V0.845694C5.81098 0.378599 5.43241 0 4.96528 0H4.11962Z" fill="#9BB5CC"/>
<path d="M13.8804 3.64107C14.3474 3.64107 14.726 3.2625 14.726 2.79538V0.845694C14.726 0.378599 14.3474 0 13.8804 0H13.0347C12.5676 0 12.189 0.378599 12.189 0.845694V2.79541C12.189 3.2625 12.5676 3.6411 13.0347 3.6411H13.8804V3.64107Z" fill="#9BB5CC"/>
<path d="M4.20783 8.96166H4.89496C5.20631 8.96166 5.45874 8.70923 5.45874 8.39787V7.71075C5.45874 7.3994 5.20631 7.14697 4.89496 7.14697H4.20783C3.89647 7.14697 3.64404 7.3994 3.64404 7.71075V8.39787C3.64404 8.70923 3.89647 8.96166 4.20783 8.96166Z" fill="#9BB5CC"/>
<path d="M8.73713 8.96166H9.42425C9.73561 8.96166 9.98804 8.70923 9.98804 8.39787V7.71075C9.98804 7.3994 9.73561 7.14697 9.42425 7.14697H8.73713C8.42577 7.14697 8.17334 7.3994 8.17334 7.71075V8.39787C8.17334 8.70923 8.42577 8.96166 8.73713 8.96166Z" fill="#9BB5CC"/>
<path d="M13.262 8.96166H13.9492C14.2605 8.96166 14.5129 8.70923 14.5129 8.39787V7.71075C14.5129 7.3994 14.2605 7.14697 13.9492 7.14697H13.262C12.9507 7.14697 12.6982 7.3994 12.6982 7.71075V8.39787C12.6982 8.70923 12.9505 8.96166 13.262 8.96166Z" fill="#9BB5CC"/>
<path d="M4.20783 12.2141H4.89496C5.20631 12.2141 5.45874 11.9617 5.45874 11.6503V10.9632C5.45874 10.6518 5.20631 10.3994 4.89496 10.3994H4.20783C3.89647 10.3994 3.64404 10.6518 3.64404 10.9632V11.6503C3.64404 11.9617 3.89647 12.2141 4.20783 12.2141Z" fill="#9BB5CC"/>
<path d="M8.73713 12.2141H9.42425C9.73561 12.2141 9.98804 11.9617 9.98804 11.6503V10.9632C9.98804 10.6518 9.73561 10.3994 9.42425 10.3994H8.73713C8.42577 10.3994 8.17334 10.6518 8.17334 10.9632V11.6503C8.17334 11.9617 8.42577 12.2141 8.73713 12.2141Z" fill="#9BB5CC"/>
<path d="M13.262 12.2141H13.9492C14.2605 12.2141 14.5129 11.9617 14.5129 11.6503V10.9632C14.5129 10.6518 14.2605 10.3994 13.9492 10.3994H13.262C12.9507 10.3994 12.6982 10.6518 12.6982 10.9632V11.6503C12.6982 11.9617 12.9505 12.2141 13.262 12.2141Z" fill="#9BB5CC"/>
<path d="M4.20783 15.4641H4.89496C5.20631 15.4641 5.45874 15.2117 5.45874 14.9003V14.2132C5.45874 13.9018 5.20631 13.6494 4.89496 13.6494H4.20783C3.89647 13.6494 3.64404 13.9018 3.64404 14.2132V14.9003C3.64404 15.2116 3.89647 15.4641 4.20783 15.4641Z" fill="#9BB5CC"/>
<path d="M8.73713 15.4641H9.42425C9.73561 15.4641 9.98804 15.2117 9.98804 14.9003V14.2132C9.98804 13.9018 9.73561 13.6494 9.42425 13.6494H8.73713C8.42577 13.6494 8.17334 13.9018 8.17334 14.2132V14.9003C8.17334 15.2116 8.42577 15.4641 8.73713 15.4641Z" fill="#9BB5CC"/>
<path d="M13.262 15.4641H13.9492C14.2605 15.4641 14.5129 15.2117 14.5129 14.9003V14.2132C14.5129 13.9018 14.2605 13.6494 13.9492 13.6494H13.262C12.9507 13.6494 12.6982 13.9018 12.6982 14.2132V14.9003C12.6982 15.2116 12.9505 15.4641 13.262 15.4641Z" fill="#9BB5CC"/>
</g>
<defs>
<clipPath id="clip0_794_2998">
<rect width="18" height="18" fill="white"/>
</clipPath>
</defs>
</svg>
