<svg width="16" height="16" viewBox="0 0 16 16" fill="none" xmlns="http://www.w3.org/2000/svg">
<g clip-path="url(#clip0_1069_6739)">
<path d="M14.0446 10.2518C13.163 10.2518 12.2973 10.1139 11.477 9.84278C11.075 9.70568 10.5809 9.83145 10.3356 10.0834L8.71645 11.3057C6.83871 10.3034 5.68206 9.14708 4.69341 7.28344L5.87972 5.70649C6.18794 5.39869 6.29849 4.94907 6.16604 4.52719C5.89379 3.70257 5.75549 2.83733 5.75549 1.95533C5.75552 1.31817 5.23716 0.799805 4.60004 0.799805H1.95554C1.31841 0.799805 0.800049 1.31817 0.800049 1.95529C0.800049 9.25842 6.74147 15.1998 14.0446 15.1998C14.6817 15.1998 15.2001 14.6814 15.2001 14.0443V11.4072C15.2 10.7701 14.6817 10.2518 14.0446 10.2518Z" fill="#FFE600"/>
</g>
<defs>
<clipPath id="clip0_1069_6739">
<rect width="16" height="16" fill="white"/>
</clipPath>
</defs>
</svg>
