<svg width="35" height="35" viewBox="0 0 35 35" fill="none" xmlns="http://www.w3.org/2000/svg">
<path d="M5.5275 30.1328V4.86719C5.5275 4.15644 6.09446 3.57812 6.79124 3.57812H17.8421V8.16135C17.8421 10.2938 19.5428 12.0285 21.6334 12.0285H26.1197V14.0195H28.6472V10.2075L19.6662 1H6.79124C4.70063 1 3 2.7347 3 4.86719V30.1328C3 32.2653 4.70063 34 6.79124 34H11.7199V31.4219H6.79124C6.09446 31.4219 5.5275 30.8436 5.5275 30.1328ZM20.3694 8.16135V5.37627L24.3433 9.45041H21.6331C20.9363 9.45041 20.3694 8.87234 20.3694 8.16135ZM18.5441 17.1777H8.11818V14.5996H18.5441V17.1777ZM8.11818 19.7559H16.6485V22.334H8.11818V19.7559ZM30.1523 17.8409C28.9589 16.6236 27.3721 15.9531 25.6843 15.9531C23.9965 15.9531 22.4096 16.6236 21.2162 17.8409C19.8086 19.2767 19.1562 21.3126 19.4292 23.3005L14.313 28.423L14.3029 33.1072L15.1784 34H19.7187L24.7955 28.7783C26.7459 29.0585 28.7434 28.3931 30.1523 26.956C32.6159 24.4431 32.6159 20.3538 30.1523 17.8409ZM28.3651 25.1329C27.4118 26.1052 26.0081 26.4887 24.7024 26.1329L23.9948 25.9406L22.3001 27.6836H19.6208L19.6188 30.4415L18.6658 31.4219H16.8341L16.838 29.5074L22.2129 24.1261L22.0231 23.4C21.6743 22.0679 22.0503 20.6363 23.0035 19.664C23.7195 18.9336 24.6716 18.5312 25.6843 18.5312C26.697 18.5312 27.649 18.9336 28.3651 19.664C29.8433 21.1718 29.8433 23.6251 28.3651 25.1329ZM27.4715 20.5754C27.965 21.0789 27.965 21.8951 27.4715 22.3984C26.9779 22.902 26.1777 22.902 25.6843 22.3984C25.1909 21.8949 25.1906 21.0789 25.6843 20.5754C26.1779 20.0721 26.9779 20.0721 27.4715 20.5754Z" fill="#9BB5CC"/>
</svg>
