<svg width="20" height="20" viewBox="0 0 20 20" fill="none" xmlns="http://www.w3.org/2000/svg">
<path d="M18.0915 16.9083L3.0915 1.90828C2.93458 1.75136 2.72175 1.66321 2.49983 1.66321C2.27791 1.66321 2.06508 1.75136 1.90816 1.90828C1.75124 2.0652 1.66309 2.27803 1.66309 2.49995C1.66309 2.72187 1.75124 2.9347 1.90816 3.09162L3.33316 4.50828V15.8333C3.33316 16.4963 3.59655 17.1322 4.0654 17.6011C4.53424 18.0699 5.17012 18.3333 5.83316 18.3333H14.1665C14.5532 18.332 14.9343 18.241 15.2799 18.0675C15.6255 17.894 15.9261 17.6426 16.1582 17.3333L16.9082 18.0916C16.9856 18.1697 17.0778 18.2317 17.1793 18.274C17.2809 18.3163 17.3898 18.3381 17.4998 18.3381C17.6098 18.3381 17.7188 18.3163 17.8203 18.274C17.9219 18.2317 18.014 18.1697 18.0915 18.0916C18.1696 18.0141 18.2316 17.922 18.2739 17.8204C18.3162 17.7189 18.338 17.61 18.338 17.5C18.338 17.3899 18.3162 17.281 18.2739 17.1795C18.2316 17.0779 18.1696 16.9858 18.0915 16.9083ZM14.1665 16.6666H5.83316C5.61215 16.6666 5.40019 16.5788 5.24391 16.4225C5.08763 16.2663 4.99983 16.0543 4.99983 15.8333V6.17495L14.9415 16.1166C14.8838 16.2763 14.7786 16.4146 14.6401 16.5129C14.5016 16.6112 14.3363 16.6648 14.1665 16.6666ZM7.2165 3.33328H9.99983V5.83328C9.99983 6.49633 10.2632 7.13221 10.7321 7.60105C11.2009 8.06989 11.8368 8.33328 12.4998 8.33328H14.9998V11.1166C14.9998 11.3376 15.0876 11.5496 15.2439 11.7059C15.4002 11.8622 15.6122 11.95 15.8332 11.95C16.0542 11.95 16.2661 11.8622 16.4224 11.7059C16.5787 11.5496 16.6665 11.3376 16.6665 11.1166V7.49995C16.6665 7.49995 16.6665 7.49995 16.6665 7.44995C16.6578 7.3734 16.6411 7.29798 16.6165 7.22495V7.14995C16.5764 7.06427 16.523 6.98551 16.4582 6.91662L11.4582 1.91662C11.3893 1.8518 11.3105 1.79835 11.2248 1.75828H11.1498L10.8832 1.66662H7.2165C6.99548 1.66662 6.78352 1.75442 6.62724 1.9107C6.47096 2.06698 6.38316 2.27894 6.38316 2.49995C6.38316 2.72096 6.47096 2.93293 6.62724 3.08921C6.78352 3.24549 6.99548 3.33328 7.2165 3.33328ZM11.6665 4.50828L13.8248 6.66662H12.4998C12.2788 6.66662 12.0669 6.57882 11.9106 6.42254C11.7543 6.26626 11.6665 6.0543 11.6665 5.83328V4.50828Z" fill="#FF6B6B"/>
</svg>
