<svg width="16" height="16" viewBox="0 0 16 16" fill="none" xmlns="http://www.w3.org/2000/svg">
<path d="M13.4187 0.563809H7.1841L7.16568 0.515716C7.04596 0.205161 6.74717 0 6.41411 0H2.72377C2.02438 0 1.43652 0.555111 1.43652 1.2545V14.745C1.43652 15.4434 2.02387 16 2.72377 16H12.3223C12.4733 16 12.614 15.9253 12.6989 15.802C12.7838 15.6782 12.8027 15.5201 12.7501 15.3804H13.4193C14.0665 15.3804 14.5632 14.8581 14.5632 14.2114V1.73696C14.5627 1.09027 14.0654 0.563809 13.4187 0.563809ZM13.2678 14.0287H12.2497L11.6792 12.521C11.9908 12.4642 12.2256 12.1991 12.2256 11.8712C12.2256 11.5013 11.9269 11.2117 11.5559 11.2117H11.183L10.7163 9.97256H11.6695C12.0394 9.97256 12.3382 9.66559 12.3382 9.2962C12.3382 8.92681 12.0394 8.62086 11.6695 8.62086H10.2165L9.74989 7.38119H11.6695C12.0394 7.38119 12.3382 7.10236 12.3382 6.73348C12.3382 6.36357 12.0394 6.08474 11.6695 6.08474H9.25004L8.78344 4.8461H11.6695C12.0394 4.8461 12.3382 4.53912 12.3382 4.16973C12.3382 3.80085 12.0394 3.49439 11.6695 3.49439H8.28409L7.68344 1.91654H13.2673V14.0287H13.2678Z" fill="#27AE60"/>
</svg>
