<svg width="18" height="18" viewBox="0 0 18 18" fill="none" xmlns="http://www.w3.org/2000/svg">
<g clip-path="url(#clip0_6842_11996)">
<path d="M11.5854 9.15888L9.84375 10.9005L9.84375 1.68747C9.84375 1.46369 9.75485 1.24908 9.59662 1.09085C9.43839 0.932614 9.22378 0.843718 9 0.843718C8.77622 0.843718 8.56161 0.932614 8.40338 1.09085C8.24515 1.24908 8.15625 1.46369 8.15625 1.68747L8.15625 10.9005L6.41465 9.15888C6.33637 9.08018 6.24334 9.01769 6.14088 8.97501C6.03842 8.93232 5.92855 8.91027 5.81755 8.91012C5.70656 8.90997 5.59662 8.93172 5.49404 8.97413C5.39147 9.01654 5.29827 9.07876 5.21978 9.15725C5.1413 9.23574 5.07907 9.32894 5.03666 9.43151C4.99426 9.53409 4.9725 9.64402 4.97265 9.75502C4.97281 9.86601 4.99486 9.97589 5.03754 10.0783C5.08023 10.1808 5.14271 10.2738 5.22141 10.3521L8.40336 13.5341C8.48171 13.6125 8.57473 13.6746 8.6771 13.717C8.77947 13.7594 8.88919 13.7812 9 13.7812C9.11081 13.7812 9.22053 13.7594 9.3229 13.717C9.42527 13.6746 9.51828 13.6125 9.59663 13.5341L12.7786 10.3521C12.8573 10.2738 12.9198 10.1808 12.9625 10.0784C13.0051 9.97589 13.0272 9.86602 13.0273 9.75502C13.0275 9.64402 13.0057 9.53409 12.9633 9.43151C12.9209 9.32894 12.8587 9.23574 12.7802 9.15725C12.7017 9.07876 12.6085 9.01654 12.506 8.97413C12.4034 8.93172 12.2934 8.90997 12.1824 8.91012C12.0715 8.91027 11.9616 8.93232 11.8591 8.97501C11.7567 9.01769 11.6636 9.08018 11.5854 9.15888Z" fill="#9BB5CC"/>
<path d="M11.5854 9.15888L9.84375 10.9005L9.84375 1.68747C9.84375 1.46369 9.75485 1.24908 9.59662 1.09085C9.43839 0.932614 9.22378 0.843718 9 0.843718C8.77622 0.843718 8.56161 0.932614 8.40338 1.09085C8.24515 1.24908 8.15625 1.46369 8.15625 1.68747L8.15625 10.9005L6.41465 9.15888C6.33637 9.08018 6.24334 9.01769 6.14088 8.97501C6.03842 8.93232 5.92855 8.91027 5.81755 8.91012C5.70656 8.90997 5.59662 8.93172 5.49404 8.97413C5.39147 9.01654 5.29827 9.07876 5.21978 9.15725C5.1413 9.23574 5.07907 9.32894 5.03666 9.43151C4.99426 9.53409 4.9725 9.64402 4.97265 9.75502C4.97281 9.86601 4.99486 9.97589 5.03754 10.0783C5.08023 10.1808 5.14271 10.2738 5.22141 10.3521L8.40336 13.5341C8.48171 13.6125 8.57473 13.6746 8.6771 13.717C8.77947 13.7594 8.88919 13.7812 9 13.7812C9.11081 13.7812 9.22053 13.7594 9.3229 13.717C9.42527 13.6746 9.51828 13.6125 9.59663 13.5341L12.7786 10.3521C12.8573 10.2738 12.9198 10.1808 12.9625 10.0784C13.0051 9.97589 13.0272 9.86602 13.0273 9.75502C13.0275 9.64402 13.0057 9.53409 12.9633 9.43151C12.9209 9.32894 12.8587 9.23574 12.7802 9.15725C12.7017 9.07876 12.6085 9.01654 12.506 8.97413C12.4034 8.93172 12.2934 8.90997 12.1824 8.91012C12.0715 8.91027 11.9616 8.93232 11.8591 8.97501C11.7567 9.01769 11.6636 9.08018 11.5854 9.15888Z" stroke="#9BB5CC"/>
<path d="M16.3125 8.15625C16.0887 8.15625 15.8741 8.24514 15.7159 8.40338C15.5576 8.56161 15.4688 8.77622 15.4688 9V15.4688H2.53125V9C2.53125 8.77622 2.44236 8.56161 2.28412 8.40338C2.12589 8.24514 1.91128 8.15625 1.6875 8.15625C1.46372 8.15625 1.24911 8.24514 1.09088 8.40338C0.932645 8.56161 0.84375 8.77622 0.84375 9V15.75C0.84375 16.123 0.991908 16.4806 1.25563 16.7444C1.51935 17.0081 1.87704 17.1562 2.25 17.1562H15.75C16.123 17.1562 16.4806 17.0081 16.7444 16.7444C17.0081 16.4806 17.1562 16.123 17.1562 15.75V9C17.1562 8.77622 17.0674 8.56161 16.9091 8.40338C16.7509 8.24514 16.5363 8.15625 16.3125 8.15625Z" fill="#9BB5CC"/>
<path d="M16.3125 8.15625C16.0887 8.15625 15.8741 8.24514 15.7159 8.40338C15.5576 8.56161 15.4688 8.77622 15.4688 9V15.4688H2.53125V9C2.53125 8.77622 2.44236 8.56161 2.28412 8.40338C2.12589 8.24514 1.91128 8.15625 1.6875 8.15625C1.46372 8.15625 1.24911 8.24514 1.09088 8.40338C0.932645 8.56161 0.84375 8.77622 0.84375 9V15.75C0.84375 16.123 0.991908 16.4806 1.25563 16.7444C1.51935 17.0081 1.87704 17.1562 2.25 17.1562H15.75C16.123 17.1562 16.4806 17.0081 16.7444 16.7444C17.0081 16.4806 17.1562 16.123 17.1562 15.75V9C17.1562 8.77622 17.0674 8.56161 16.9091 8.40338C16.7509 8.24514 16.5363 8.15625 16.3125 8.15625Z" stroke="#9BB5CC"/>
</g>
<defs>
<clipPath id="clip0_6842_11996">
<rect width="18" height="18" fill="white"/>
</clipPath>
</defs>
</svg>
