<svg width="18" height="18" viewBox="0 0 18 18" fill="none" xmlns="http://www.w3.org/2000/svg">
<g clip-path="url(#clip0_5455_4136)">
<path d="M17.4375 2.81326H10.125V1.12576C10.125 0.958133 10.0508 0.799508 9.92138 0.692633C9.79313 0.585758 9.621 0.539633 9.459 0.573383L0.459 2.26088C0.192375 2.31038 0 2.54213 0 2.81326V15.1883C0 15.4583 0.192375 15.6911 0.459 15.7406L9.459 17.4281C9.49275 17.4349 9.52763 17.4383 9.5625 17.4383C9.693 17.4383 9.82013 17.3933 9.92138 17.3089C10.0508 17.202 10.125 17.0423 10.125 16.8758V15.1883H17.4375C17.748 15.1883 18 14.9363 18 14.6258V3.37576C18 3.06526 17.748 2.81326 17.4375 2.81326ZM7.7355 10.8806C7.94025 11.1135 7.91663 11.469 7.68262 11.6738C7.57575 11.7671 7.44413 11.8133 7.3125 11.8133C7.15613 11.8133 7.00087 11.748 6.8895 11.6209L5.25375 9.75226L3.81938 11.5973C3.708 11.739 3.5415 11.8133 3.375 11.8133C3.25463 11.8133 3.13313 11.775 3.02963 11.6951C2.78438 11.5039 2.7405 11.1506 2.93062 10.9054L4.49888 8.88938L2.952 7.12088C2.74725 6.88801 2.77087 6.53251 3.00487 6.32776C3.23775 6.12301 3.59213 6.14551 3.79913 6.38063L5.20312 7.98488L6.86925 5.84288C7.0605 5.59876 7.41375 5.55376 7.659 5.74501C7.90425 5.93513 7.94812 6.28838 7.75688 6.53476L5.95687 8.84776L7.7355 10.8806ZM16.875 14.0633H10.125V12.9383H11.8125C12.123 12.9383 12.375 12.6863 12.375 12.3758C12.375 12.0653 12.123 11.8133 11.8125 11.8133H10.125V10.6883H11.8125C12.123 10.6883 12.375 10.4363 12.375 10.1258C12.375 9.81526 12.123 9.56326 11.8125 9.56326H10.125V8.43826H11.8125C12.123 8.43826 12.375 8.18626 12.375 7.87576C12.375 7.56526 12.123 7.31326 11.8125 7.31326H10.125V6.18826H11.8125C12.123 6.18826 12.375 5.93626 12.375 5.62576C12.375 5.31526 12.123 5.06326 11.8125 5.06326H10.125V3.93826H16.875V14.0633Z" fill="#27AE60"/>
<path d="M15.1875 5.0625H14.0625C13.752 5.0625 13.5 5.3145 13.5 5.625C13.5 5.9355 13.752 6.1875 14.0625 6.1875H15.1875C15.498 6.1875 15.75 5.9355 15.75 5.625C15.75 5.3145 15.498 5.0625 15.1875 5.0625Z" fill="#27AE60"/>
<path d="M15.1875 7.3125H14.0625C13.752 7.3125 13.5 7.5645 13.5 7.875C13.5 8.1855 13.752 8.4375 14.0625 8.4375H15.1875C15.498 8.4375 15.75 8.1855 15.75 7.875C15.75 7.5645 15.498 7.3125 15.1875 7.3125Z" fill="#27AE60"/>
<path d="M15.1875 9.5625H14.0625C13.752 9.5625 13.5 9.8145 13.5 10.125C13.5 10.4355 13.752 10.6875 14.0625 10.6875H15.1875C15.498 10.6875 15.75 10.4355 15.75 10.125C15.75 9.8145 15.498 9.5625 15.1875 9.5625Z" fill="#27AE60"/>
<path d="M15.1875 11.8125H14.0625C13.752 11.8125 13.5 12.0645 13.5 12.375C13.5 12.6855 13.752 12.9375 14.0625 12.9375H15.1875C15.498 12.9375 15.75 12.6855 15.75 12.375C15.75 12.0645 15.498 11.8125 15.1875 11.8125Z" fill="#27AE60"/>
</g>
<defs>
<clipPath id="clip0_5455_4136">
<rect width="18" height="18" fill="white"/>
</clipPath>
</defs>
</svg>
