<svg width="14" height="14" viewBox="0 0 14 14" fill="none" xmlns="http://www.w3.org/2000/svg">
<g clip-path="url(#clip0_3150_5716)">
<path d="M5.06062 4.32196L6.24429 3.13828V10.0625C6.24429 10.2631 6.32397 10.4555 6.46579 10.5973C6.60762 10.7391 6.79997 10.8188 7.00054 10.8188C7.20111 10.8188 7.39347 10.7391 7.53529 10.5973C7.67712 10.4555 7.75679 10.2631 7.75679 10.0625V3.13828L8.94047 4.32196C8.9405 4.32199 8.94053 4.32202 8.94056 4.32205C9.0107 4.39255 9.09405 4.44852 9.18584 4.48676C9.27768 4.52502 9.37616 4.54478 9.47564 4.54492C9.57513 4.54505 9.67366 4.52556 9.7656 4.48755C9.85754 4.44954 9.94107 4.39377 10.0114 4.32342C10.0818 4.25307 10.1375 4.16954 10.1756 4.0776C10.2136 3.98566 10.2331 3.88713 10.2329 3.78764C10.2328 3.68816 10.213 3.58968 10.1748 3.49784C10.1365 3.40605 10.0806 3.32269 10.0101 3.25256C10.01 3.25253 10.01 3.2525 10.01 3.25247L7.53531 0.77778C7.53531 0.777779 7.53531 0.777779 7.5353 0.777778C7.46508 0.70755 7.38171 0.651842 7.28996 0.613835C7.1982 0.575828 7.09986 0.556265 7.00054 0.556265C6.90123 0.556265 6.80288 0.575828 6.71113 0.613835C6.61938 0.651842 6.53601 0.70755 6.46578 0.777778C6.46578 0.777779 6.46578 0.777779 6.46578 0.77778L3.99112 3.25247C3.9911 3.25249 3.99108 3.25251 3.99105 3.25254C3.92055 3.32268 3.86457 3.40604 3.82632 3.49784C3.78806 3.58968 3.7683 3.68816 3.76816 3.78764C3.76803 3.88713 3.78752 3.98566 3.82553 4.0776C3.86354 4.16954 3.91932 4.25307 3.98966 4.32342C4.06001 4.39377 4.14355 4.44954 4.23548 4.48755C4.32742 4.52556 4.42596 4.54505 4.52544 4.54492C4.62493 4.54478 4.72341 4.52502 4.81524 4.48676C4.90703 4.44852 4.99037 4.39256 5.0605 4.32208C5.06054 4.32204 5.06058 4.322 5.06062 4.32196Z" fill="#353C47" stroke="#353C47" stroke-width="0.2"/>
<path d="M12.6875 6.24374C12.4869 6.24374 12.2946 6.32342 12.1528 6.46524C12.0109 6.60707 11.9312 6.79942 11.9312 6.99999V11.9312H2.06875V6.99999C2.06875 6.79942 1.98907 6.60707 1.84725 6.46524C1.70543 6.32342 1.51307 6.24374 1.3125 6.24374C1.11193 6.24374 0.919575 6.32342 0.777751 6.46524C0.635926 6.60707 0.55625 6.79942 0.55625 6.99999V12.25C0.55625 12.5666 0.68202 12.8702 0.905891 13.0941C1.12976 13.318 1.4334 13.4437 1.75 13.4437H12.25C12.5666 13.4437 12.8702 13.318 13.0941 13.0941C13.318 12.8702 13.4438 12.5666 13.4438 12.25V6.99999C13.4438 6.79942 13.3641 6.60707 13.2222 6.46524C13.0804 6.32342 12.8881 6.24374 12.6875 6.24374Z" fill="#353C47" stroke="#353C47" stroke-width="0.2"/>
</g>
<defs>
<clipPath id="clip0_3150_5716">
<rect width="14" height="14" fill="white"/>
</clipPath>
</defs>
</svg>
