<svg width="20" height="20" viewBox="0 0 20 20" fill="none" xmlns="http://www.w3.org/2000/svg">
<path d="M16.6667 6.8165V2.49984C16.6667 2.27882 16.5789 2.06686 16.4226 1.91058C16.2663 1.7543 16.0544 1.6665 15.8333 1.6665C15.6123 1.6665 15.4004 1.7543 15.2441 1.91058C15.0878 2.06686 15 2.27882 15 2.49984V6.8165C14.5174 6.99167 14.1004 7.31119 13.8057 7.73164C13.511 8.15209 13.3529 8.65307 13.3529 9.1665C13.3529 9.67994 13.511 10.1809 13.8057 10.6014C14.1004 11.0218 14.5174 11.3413 15 11.5165V17.4998C15 17.7209 15.0878 17.9328 15.2441 18.0891C15.4004 18.2454 15.6123 18.3332 15.8333 18.3332C16.0544 18.3332 16.2663 18.2454 16.4226 18.0891C16.5789 17.9328 16.6667 17.7209 16.6667 17.4998V11.5165C17.1493 11.3413 17.5663 11.0218 17.861 10.6014C18.1557 10.1809 18.3137 9.67994 18.3137 9.1665C18.3137 8.65307 18.1557 8.15209 17.861 7.73164C17.5663 7.31119 17.1493 6.99167 16.6667 6.8165ZM15.8333 9.99984C15.6685 9.99984 15.5074 9.95096 15.3704 9.8594C15.2333 9.76783 15.1265 9.63768 15.0634 9.48541C15.0004 9.33314 14.9839 9.16558 15.016 9.00393C15.0482 8.84228 15.1275 8.69379 15.2441 8.57725C15.3606 8.4607 15.5091 8.38134 15.6708 8.34918C15.8324 8.31703 16 8.33353 16.1522 8.3966C16.3045 8.45968 16.4347 8.56649 16.5262 8.70353C16.6178 8.84057 16.6667 9.00169 16.6667 9.1665C16.6667 9.38752 16.5789 9.59948 16.4226 9.75576C16.2663 9.91204 16.0544 9.99984 15.8333 9.99984ZM10.8333 11.8165V2.49984C10.8333 2.27882 10.7455 2.06686 10.5893 1.91058C10.433 1.7543 10.221 1.6665 10 1.6665C9.779 1.6665 9.56704 1.7543 9.41075 1.91058C9.25447 2.06686 9.16668 2.27882 9.16668 2.49984V11.8165C8.68405 11.9917 8.26706 12.3112 7.97238 12.7316C7.6777 13.1521 7.51961 13.6531 7.51961 14.1665C7.51961 14.6799 7.6777 15.1809 7.97238 15.6014C8.26706 16.0218 8.68405 16.3413 9.16668 16.5165V17.4998C9.16668 17.7209 9.25447 17.9328 9.41075 18.0891C9.56704 18.2454 9.779 18.3332 10 18.3332C10.221 18.3332 10.433 18.2454 10.5893 18.0891C10.7455 17.9328 10.8333 17.7209 10.8333 17.4998V16.5165C11.316 16.3413 11.733 16.0218 12.0276 15.6014C12.3223 15.1809 12.4804 14.6799 12.4804 14.1665C12.4804 13.6531 12.3223 13.1521 12.0276 12.7316C11.733 12.3112 11.316 11.9917 10.8333 11.8165ZM10 14.9998C9.83519 14.9998 9.67408 14.951 9.53703 14.8594C9.39999 14.7678 9.29318 14.6377 9.23011 14.4854C9.16704 14.3331 9.15053 14.1656 9.18269 14.0039C9.21484 13.8423 9.29421 13.6938 9.41075 13.5772C9.5273 13.4607 9.67578 13.3813 9.83743 13.3492C9.99909 13.317 10.1666 13.3335 10.3189 13.3966C10.4712 13.4597 10.6013 13.5665 10.6929 13.7035C10.7845 13.8406 10.8333 14.0017 10.8333 14.1665C10.8333 14.3875 10.7455 14.5995 10.5893 14.7558C10.433 14.912 10.221 14.9998 10 14.9998ZM5.00001 5.14984V2.49984C5.00001 2.27882 4.91221 2.06686 4.75593 1.91058C4.59965 1.7543 4.38769 1.6665 4.16668 1.6665C3.94566 1.6665 3.7337 1.7543 3.57742 1.91058C3.42114 2.06686 3.33334 2.27882 3.33334 2.49984V5.14984C2.85072 5.32501 2.43373 5.64453 2.13904 6.06498C1.84436 6.48542 1.68628 6.9864 1.68628 7.49984C1.68628 8.01327 1.84436 8.51425 2.13904 8.9347C2.43373 9.35515 2.85072 9.67467 3.33334 9.84984V17.4998C3.33334 17.7209 3.42114 17.9328 3.57742 18.0891C3.7337 18.2454 3.94566 18.3332 4.16668 18.3332C4.38769 18.3332 4.59965 18.2454 4.75593 18.0891C4.91221 17.9328 5.00001 17.7209 5.00001 17.4998V9.84984C5.48264 9.67467 5.89963 9.35515 6.19431 8.9347C6.48899 8.51425 6.64707 8.01327 6.64707 7.49984C6.64707 6.9864 6.48899 6.48542 6.19431 6.06498C5.89963 5.64453 5.48264 5.32501 5.00001 5.14984ZM4.16668 8.33317C4.00186 8.33317 3.84074 8.2843 3.7037 8.19273C3.56666 8.10116 3.45985 7.97101 3.39678 7.81874C3.3337 7.66647 3.3172 7.49891 3.34936 7.33726C3.38151 7.17561 3.46088 7.02713 3.57742 6.91058C3.69396 6.79404 3.84245 6.71467 4.0041 6.68252C4.16575 6.65036 4.33331 6.66686 4.48558 6.72994C4.63785 6.79301 4.768 6.89982 4.85957 7.03686C4.95114 7.1739 5.00001 7.33502 5.00001 7.49984C5.00001 7.72085 4.91221 7.93281 4.75593 8.08909C4.59965 8.24537 4.38769 8.33317 4.16668 8.33317Z" fill="#9BB5CC"/>
</svg>
