<svg width="14" height="14" viewBox="0 0 14 14" fill="none" xmlns="http://www.w3.org/2000/svg">
<g clip-path="url(#clip0_3150_5723)">
<path d="M8.94036 7.05301L7.75668 8.23669L7.75668 1.31244C7.75668 1.11187 7.67701 0.919513 7.53518 0.777689C7.39336 0.635865 7.201 0.556187 7.00043 0.556187C6.79986 0.556187 6.60751 0.635865 6.46569 0.77769C6.32386 0.919513 6.24419 1.11187 6.24419 1.31244L6.24418 8.23669L5.06051 7.05301C5.06048 7.05298 5.06045 7.05295 5.06042 7.05292C4.99028 6.98243 4.90693 6.92646 4.81513 6.88821C4.7233 6.84996 4.62482 6.83019 4.52533 6.83006C4.42585 6.82992 4.32731 6.84942 4.23538 6.88743C4.14344 6.92544 4.0599 6.98121 3.98956 7.05156C3.91921 7.1219 3.86343 7.20544 3.82542 7.29738C3.78742 7.38932 3.76792 7.48785 3.76806 7.58734C3.76819 7.68682 3.78795 7.7853 3.82621 7.87714C3.86445 7.96893 3.92043 8.05228 3.99092 8.12242C3.99095 8.12245 3.99098 8.12248 3.99101 8.12251L6.46567 10.5972C6.46567 10.5972 6.46567 10.5972 6.46567 10.5972C6.5359 10.6674 6.61927 10.7231 6.71102 10.7611C6.80278 10.7991 6.90112 10.8187 7.00043 10.8187C7.09975 10.8187 7.19809 10.7991 7.28985 10.7611C7.3816 10.7231 7.46497 10.6674 7.53519 10.5972C7.5352 10.5972 7.5352 10.5972 7.5352 10.5972L10.0099 8.12251C10.0099 8.12249 10.0099 8.12246 10.0099 8.12244C10.0804 8.0523 10.1364 7.96894 10.1747 7.87714C10.2129 7.7853 10.2327 7.68682 10.2328 7.58734C10.2329 7.48785 10.2135 7.38932 10.1754 7.29738C10.1374 7.20544 10.0817 7.1219 10.0113 7.05156C9.94097 6.98121 9.85743 6.92544 9.76549 6.88743C9.67355 6.84942 9.57502 6.82992 9.47553 6.83006C9.37605 6.83019 9.27757 6.84996 9.18573 6.88822C9.09395 6.92645 9.01061 6.98242 8.94048 7.0529C8.94044 7.05294 8.9404 7.05298 8.94036 7.05301Z" fill="#353C47" stroke="#353C47" stroke-width="0.2"/>
<path d="M12.6875 6.24374C12.4869 6.24374 12.2946 6.32342 12.1528 6.46524C12.0109 6.60707 11.9312 6.79942 11.9312 6.99999V11.9312H2.06875V6.99999C2.06875 6.79942 1.98907 6.60707 1.84725 6.46524C1.70543 6.32342 1.51307 6.24374 1.3125 6.24374C1.11193 6.24374 0.919575 6.32342 0.777751 6.46524C0.635926 6.60707 0.55625 6.79942 0.55625 6.99999V12.25C0.55625 12.5666 0.68202 12.8702 0.905891 13.0941C1.12976 13.318 1.4334 13.4437 1.75 13.4437H12.25C12.5666 13.4437 12.8702 13.318 13.0941 13.0941C13.318 12.8702 13.4438 12.5666 13.4438 12.25V6.99999C13.4438 6.79942 13.3641 6.60707 13.2222 6.46524C13.0804 6.32342 12.8881 6.24374 12.6875 6.24374Z" fill="#353C47" stroke="#353C47" stroke-width="0.2"/>
</g>
<defs>
<clipPath id="clip0_3150_5723">
<rect width="14" height="14" fill="white"/>
</clipPath>
</defs>
</svg>
