<svg width="48" height="48" viewBox="0 0 48 48" fill="none" xmlns="http://www.w3.org/2000/svg">
<path d="M8 28H13.349C14.3274 28 14.8166 28 15.2769 28.1105C15.6851 28.2085 16.0753 28.3701 16.4331 28.5894C16.8368 28.8368 17.1827 29.1827 17.8745 29.8745L18.1255 30.1255C18.8173 30.8173 19.1632 31.1632 19.5669 31.4106C19.9247 31.6299 20.3149 31.7915 20.7231 31.8895C21.1834 32 21.6726 32 22.651 32H25.349C26.3274 32 26.8166 32 27.2769 31.8895C27.6851 31.7915 28.0753 31.6299 28.4331 31.4106C28.8368 31.1632 29.1827 30.8173 29.8745 30.1255L30.1255 29.8745C30.8173 29.1827 31.1632 28.8368 31.5669 28.5894C31.9247 28.3701 32.3149 28.2085 32.7231 28.1105C33.1834 28 33.6726 28 34.651 28H40M17.6 40H30.4C33.7603 40 35.4405 40 36.7239 39.346C37.8529 38.7708 38.7708 37.8529 39.346 36.7239C40 35.4405 40 33.7603 40 30.4V17.6C40 14.2397 40 12.5595 39.346 11.2761C38.7708 10.1471 37.8529 9.2292 36.7239 8.65396C35.4405 8 33.7603 8 30.4 8H17.6C14.2397 8 12.5595 8 11.2761 8.65396C10.1471 9.2292 9.2292 10.1471 8.65396 11.2761C8 12.5595 8 14.2397 8 17.6V30.4C8 33.7603 8 35.4405 8.65396 36.7239C9.2292 37.8529 10.1471 38.7708 11.2761 39.346C12.5595 40 14.2397 40 17.6 40Z" stroke="#9BB5CC" stroke-width="2" stroke-linecap="round" stroke-linejoin="round"/>
</svg>
