<svg width="24" height="24" viewBox="0 0 24 24" fill="none" xmlns="http://www.w3.org/2000/svg">
<path d="M8 14C8 12.8954 8.89543 12 10 12H14C15.1046 12 16 12.8954 16 14V21H8V14Z" stroke="#FFE600" stroke-width="2" stroke-linejoin="round"/>
<path d="M3 17C3 16.4477 3.44772 16 4 16H8V21H3V17Z" stroke="#FFE600" stroke-width="2" stroke-linejoin="round"/>
<path d="M16 17H20C20.5523 17 21 17.4477 21 18V21H16V17Z" stroke="#FFE600" stroke-width="2" stroke-linejoin="round"/>
<path d="M12 2L12.8981 4.76393H15.8042L13.4531 6.47214L14.3511 9.23607L12 7.52786L9.64886 9.23607L10.5469 6.47214L8.19577 4.76393H11.1019L12 2Z" stroke="#FFE600" stroke-width="2" stroke-linejoin="round"/>
</svg>
