<svg width="16" height="16" viewBox="0 0 16 16" fill="none" xmlns="http://www.w3.org/2000/svg">
<g clip-path="url(#clip0_3150_14149)">
<path d="M14.1882 5.72312H13.804V3.86936C13.804 3.85781 13.8021 3.84616 13.8008 3.83434C13.8002 3.76081 13.7766 3.68852 13.7262 3.63124L10.6412 0.107301C10.6402 0.106396 10.6393 0.106075 10.6387 0.105112C10.6203 0.0845682 10.5989 0.0674678 10.5762 0.0527019C10.5695 0.048208 10.5627 0.0444436 10.5557 0.0404749C10.5361 0.0298236 10.5152 0.0208648 10.4938 0.0144157C10.4879 0.0128983 10.4827 0.0105054 10.4769 0.00898793C10.4536 0.00344343 10.4294 0 10.4049 0H2.82343C2.47725 0 2.19599 0.281573 2.19599 0.627462V5.72295H1.81185C1.31661 5.72295 0.915039 6.12437 0.915039 6.61978V11.2834C0.915039 11.7783 1.31661 12.1801 1.81185 12.1801H2.19599V15.3726C2.19599 15.7185 2.47725 16 2.82343 16H13.1763C13.5222 16 13.8038 15.7185 13.8038 15.3726V12.1802H14.188C14.6831 12.1802 15.0847 11.7785 15.0847 11.2834V6.61996C15.0847 6.1244 14.6834 5.72312 14.1882 5.72312ZM2.82343 0.627462H10.0912V3.83761C10.0912 4.01095 10.2318 4.15134 10.4049 4.15134H13.1764V5.72309H2.82343V0.627462ZM9.17973 9.18231C8.5633 8.96756 8.16106 8.62654 8.16106 8.08671C8.16106 7.45353 8.68954 6.96915 9.56516 6.96915C9.98336 6.96915 10.2919 7.0571 10.5119 7.15629L10.3248 7.8333C10.1762 7.76192 9.91198 7.65713 9.54861 7.65713C9.18524 7.65713 9.0091 7.82236 9.0091 8.01507C9.0091 8.25188 9.21836 8.35638 9.69721 8.53804C10.3522 8.78039 10.6606 9.12167 10.6606 9.64463C10.6606 10.2669 10.1816 10.7954 9.16304 10.7954C8.7392 10.7954 8.32083 10.6854 8.1116 10.5696L8.2821 9.87598C8.50791 9.99148 8.85485 10.1073 9.21256 10.1073C9.59828 10.1073 9.80168 9.94768 9.80168 9.70536C9.80182 9.4743 9.62568 9.3419 9.17973 9.18231ZM7.75978 10.0355V10.7405H5.44163V7.02932H6.2843V10.0355H7.75978ZM2.74989 10.7405H1.79197L2.86551 8.86256L1.83035 7.02917H2.79395L3.1186 7.70648C3.22873 7.93223 3.31137 8.11368 3.39956 8.32323H3.41027C3.4986 8.08642 3.5701 7.92125 3.66342 7.70648L3.9773 7.02917H4.93524L3.88914 8.84036L4.99045 10.7402H4.02156L3.68554 10.0683C3.54812 9.80994 3.45996 9.61705 3.35532 9.40231H3.34438C3.26719 9.61705 3.17381 9.80994 3.05808 10.0683L2.74989 10.7405ZM13.1764 15.2027H2.82343V12.1802H13.1763V15.2027H13.1764ZM13.182 10.7405L12.8461 10.0687C12.7085 9.81003 12.6204 9.61737 12.5158 9.4026H12.5051C12.4279 9.61737 12.3342 9.81003 12.2183 10.0687L11.9105 10.7405H10.9522L12.0258 8.86256L10.9907 7.02917H11.9543L12.2793 7.70648C12.3893 7.93223 12.4717 8.11368 12.56 8.32323H12.571C12.6589 8.08642 12.7303 7.92125 12.824 7.70648L13.1378 7.02917H14.0959L13.0498 8.84036L14.1509 10.7402H13.182V10.7405Z" fill="#353C47"/>
</g>
<defs>
<clipPath id="clip0_3150_14149">
<rect width="16" height="16" fill="white"/>
</clipPath>
</defs>
</svg>
