<svg width="16" height="16" viewBox="0 0 16 16" fill="none" xmlns="http://www.w3.org/2000/svg">
<path d="M9.61644 14.6212C9.48451 14.6543 9.34999 14.6837 9.21648 14.7085C8.86745 14.7738 8.6367 15.112 8.70126 15.4639C8.73314 15.637 8.83075 15.7812 8.96327 15.8753C9.09985 15.9722 9.27367 16.0159 9.4508 15.9827C9.60981 15.953 9.77005 15.918 9.9273 15.8785C10.272 15.7921 10.4819 15.4404 10.3959 15.0933C10.3102 14.746 9.96131 14.5347 9.61644 14.6212Z" fill="#FFC700"/>
<path d="M14.3727 5.93687C14.4178 6.07365 14.5038 6.18531 14.6124 6.26246C14.7735 6.37676 14.9843 6.41521 15.1855 6.34821C15.5228 6.2354 15.7055 5.86907 15.5939 5.52951C15.5431 5.37471 15.4867 5.21943 15.4266 5.06824C15.2947 4.736 14.9205 4.57424 14.5905 4.70714C14.2609 4.83997 14.1002 5.21694 14.2322 5.54929C14.2827 5.67637 14.33 5.80681 14.3727 5.93687Z" fill="#FFC700"/>
<path d="M11.7066 13.6961C11.5931 13.7715 11.476 13.8446 11.358 13.913C11.0502 14.0918 10.9448 14.4881 11.1223 14.798C11.1705 14.8823 11.2347 14.9512 11.3086 15.0039C11.507 15.1445 11.7765 15.1656 12.0008 15.0354C12.1411 14.9539 12.2806 14.8672 12.4157 14.7772C12.712 14.5801 12.7935 14.1781 12.5977 13.8795C12.4019 13.5808 12.003 13.4988 11.7066 13.6961Z" fill="#FFC700"/>
<path d="M15.9939 7.74627C15.9799 7.38866 15.6809 7.11032 15.3258 7.12428C14.9711 7.13838 14.6946 7.43969 14.7085 7.79716C14.7138 7.93384 14.7152 8.07255 14.7121 8.20909C14.7071 8.43335 14.816 8.63325 14.9852 8.7534C15.086 8.82491 15.2084 8.86818 15.341 8.87123C15.696 8.87916 15.9902 8.59552 15.9981 8.23774C16.0017 8.0746 16.0003 7.90931 15.9939 7.74627Z" fill="#FFC700"/>
<path d="M14.2677 11.9916C13.983 11.7765 13.5803 11.8349 13.3671 12.1212C13.2854 12.2308 13.1994 12.339 13.1114 12.4433C12.8813 12.7156 12.9138 13.1246 13.1841 13.3566C13.1995 13.3697 13.2151 13.3818 13.2313 13.3932C13.5 13.584 13.8735 13.5402 14.0908 13.2833C14.196 13.1589 14.2985 13.0296 14.396 12.8987C14.6093 12.6125 14.5516 12.2065 14.2677 11.9916Z" fill="#FFC700"/>
<path d="M15.2132 9.64947C14.8743 9.54242 14.5133 9.73248 14.4071 10.0739C14.3664 10.2043 14.3214 10.3354 14.2728 10.4638C14.166 10.7463 14.2683 11.0572 14.5028 11.2239C14.5459 11.2543 14.5933 11.2801 14.6448 11.2997C14.9766 11.4273 15.3482 11.2596 15.4747 10.9251C15.5325 10.7725 15.5861 10.6166 15.6345 10.4615C15.7406 10.12 15.5521 9.75653 15.2132 9.64947Z" fill="#FFC700"/>
<path d="M6.80993 14.7143C6.23487 14.6103 5.68323 14.4332 5.16013 14.1862C5.15394 14.1829 5.1484 14.1792 5.1419 14.1762C5.01863 14.1178 4.89557 14.0552 4.7763 13.9898C4.77588 13.9893 4.77513 13.989 4.77447 13.9887C4.55562 13.8673 4.34204 13.733 4.13454 13.5858C1.10884 11.4389 0.381346 7.21258 2.51287 4.16481C2.97636 3.50232 3.53726 2.94963 4.16257 2.51158C4.17028 2.50617 4.17798 2.5008 4.18562 2.49536C6.38913 0.965988 9.38115 0.862918 11.7209 2.43449L11.2184 3.16588C11.0787 3.36946 11.1646 3.51781 11.4092 3.49564L13.5921 3.29878C13.837 3.27661 13.9834 3.06323 13.9176 2.82501L13.3314 0.697592C13.2658 0.459095 13.0978 0.430547 12.9579 0.634087L12.4542 1.36721C10.7371 0.20615 8.67766 -0.23658 6.63353 0.120473C6.42765 0.156365 6.22465 0.200295 6.02445 0.251432C6.0229 0.251709 6.02166 0.251882 6.02042 0.252159C6.01269 0.254065 6.00484 0.256594 5.99731 0.258707C4.23463 0.714672 2.69671 1.75025 1.5993 3.2278C1.59005 3.23885 1.58052 3.24966 1.57179 3.26168C1.53529 3.31119 1.49908 3.36184 1.46362 3.41249C1.40563 3.4955 1.34847 3.58059 1.29378 3.66568C1.28694 3.67593 1.28171 3.68636 1.27572 3.69672C0.370134 5.11027 -0.0666683 6.74449 0.00824148 8.40822C0.00841345 8.41369 0.00810391 8.4192 0.00824148 8.42481C0.0154986 8.58733 0.0282931 8.7521 0.045662 8.91431C0.0465906 8.92477 0.048895 8.93468 0.0506491 8.94515C0.0686027 9.10826 0.0911307 9.27175 0.119368 9.4352C0.40635 11.1029 1.18737 12.6037 2.35769 13.7714C2.3604 13.7741 2.36322 13.7771 2.36597 13.7799C2.36694 13.781 2.368 13.7816 2.36893 13.7826C2.68336 14.095 3.02537 14.3839 3.39363 14.6452C4.35734 15.3292 5.43047 15.7814 6.58294 15.9897C6.93262 16.053 7.26665 15.8185 7.32939 15.4664C7.39209 15.1141 7.15951 14.7774 6.80993 14.7143Z" fill="#FFC700"/>
<path d="M7.60558 2.82397C7.31794 2.82397 7.08496 3.05887 7.08496 3.34819V8.57084L11.8268 11.04C11.9032 11.0798 11.9849 11.0986 12.0653 11.0986C12.2536 11.0986 12.4355 10.9953 12.528 10.815C12.6599 10.5577 12.5601 10.2417 12.3047 10.1088L8.12562 7.93247V3.34819C8.12558 3.05887 7.89287 2.82397 7.60558 2.82397Z" fill="#FFC700"/>
</svg>
