<svg width="24" height="24" viewBox="0 0 24 24" fill="none" xmlns="http://www.w3.org/2000/svg">
<path d="M17.8 3H6.2C5.0799 3 4.51984 3 4.09202 3.21799C3.71569 3.40973 3.40973 3.71569 3.21799 4.09202C3 4.51984 3 5.0799 3 6.2V17.8C3 18.9201 3 19.4802 3.21799 19.908C3.40973 20.2843 3.71569 20.5903 4.09202 20.782C4.51984 21 5.0799 21 6.2 21H17.8C18.9201 21 19.4802 21 19.908 20.782C20.2843 20.5903 20.5903 20.2843 20.782 19.908C21 19.4802 21 18.9201 21 17.8V6.2C21 5.0799 21 4.51984 20.782 4.09202C20.5903 3.71569 20.2843 3.40973 19.908 3.21799C19.4802 3 18.9201 3 17.8 3Z" stroke="#FFE600" stroke-width="2" stroke-linecap="round" stroke-linejoin="round"/>
<path d="M3 15H9L12 17L15 15H21" stroke="#FFE600" stroke-width="2" stroke-linecap="round" stroke-linejoin="round"/>
<path d="M7 11H17" stroke="#FFE600" stroke-width="2" stroke-linecap="round" stroke-linejoin="round"/>
<path d="M7 7H17" stroke="#FFE600" stroke-width="2" stroke-linecap="round" stroke-linejoin="round"/>
</svg>
