<svg width="18" height="18" viewBox="0 0 18 18" fill="none" xmlns="http://www.w3.org/2000/svg">
<path d="M9 1.5C7.07729 1.50548 5.23012 2.24919 3.84 3.5775V2.25C3.84 2.05109 3.76098 1.86032 3.62033 1.71967C3.47968 1.57902 3.28891 1.5 3.09 1.5C2.89109 1.5 2.70032 1.57902 2.55967 1.71967C2.41902 1.86032 2.34 2.05109 2.34 2.25V5.625C2.34 5.82391 2.41902 6.01468 2.55967 6.15533C2.70032 6.29598 2.89109 6.375 3.09 6.375H6.465C6.66391 6.375 6.85468 6.29598 6.99533 6.15533C7.13598 6.01468 7.215 5.82391 7.215 5.625C7.215 5.42609 7.13598 5.23532 6.99533 5.09467C6.85468 4.95402 6.66391 4.875 6.465 4.875H4.665C5.62933 3.86727 6.91463 3.22699 8.2999 3.06425C9.68517 2.90151 11.0839 3.22648 12.2555 3.98328C13.4271 4.74009 14.2985 5.88144 14.7197 7.21109C15.141 8.54075 15.0859 9.97564 14.5638 11.269C14.0417 12.5625 13.0854 13.6336 11.8591 14.2982C10.6329 14.9629 9.21337 15.1796 7.84467 14.911C6.47597 14.6424 5.2436 13.9054 4.35944 12.8266C3.47529 11.7479 2.99459 10.3948 3 9C3 8.80109 2.92098 8.61032 2.78033 8.46967C2.63968 8.32902 2.44891 8.25 2.25 8.25C2.05109 8.25 1.86032 8.32902 1.71967 8.46967C1.57902 8.61032 1.5 8.80109 1.5 9C1.5 10.4834 1.93987 11.9334 2.76398 13.1668C3.58809 14.4001 4.75943 15.3614 6.12987 15.9291C7.50032 16.4968 9.00832 16.6453 10.4632 16.3559C11.918 16.0665 13.2544 15.3522 14.3033 14.3033C15.3522 13.2544 16.0665 11.918 16.3559 10.4632C16.6453 9.00832 16.4968 7.50032 15.9291 6.12987C15.3614 4.75943 14.4001 3.58809 13.1668 2.76398C11.9334 1.93987 10.4834 1.5 9 1.5Z" fill="#38B1F5"/>
</svg>
