<svg width="20" height="20" viewBox="0 0 20 20" fill="none" xmlns="http://www.w3.org/2000/svg">
<path d="M10.2797 11.9007H11.35V15.1257C11.35 15.3358 11.475 15.5248 11.667 15.6077C11.8631 15.6926 12.0836 15.6511 12.236 15.507L18.986 9.13199L18.9863 9.13172C19.0901 9.03311 19.15 8.89563 19.15 8.75069C19.15 8.60574 19.0901 8.46826 18.9863 8.36966L18.986 8.36938L12.236 1.99438C12.236 1.99437 12.236 1.99435 12.236 1.99434C12.0836 1.85032 11.8623 1.80872 11.6667 1.8938C11.4749 1.97676 11.35 2.16567 11.35 2.37564V5.60245C5.54169 5.71162 0.85 10.4692 0.85 16.3032V16.3033V16.3033V16.3033V16.3033V16.3033V16.3033V16.3033V16.3033V16.3033V16.3033V16.3033V16.3033V16.3034V16.3034V16.3034V16.3034V16.3034V16.3034V16.3034V16.3034V16.3034V16.3034V16.3034V16.3034V16.3034V16.3035V16.3035V16.3035V16.3035V16.3035V16.3035V16.3035V16.3035V16.3035V16.3035V16.3036V16.3036V16.3036V16.3036V16.3036V16.3036V16.3036V16.3036V16.3036V16.3036V16.3036V16.3037V16.3037V16.3037V16.3037V16.3037V16.3037V16.3037V16.3037V16.3037V16.3037V16.3037V16.3037V16.3038V16.3038V16.3038V16.3038V16.3038V16.3038V16.3038V16.3038V16.3038V16.3038V16.3038V16.3038V16.3038V16.3039V16.3039V16.3039V16.3039V16.3039V16.3039V16.3039V16.3039V16.3039V16.3039V16.3039V16.3039V16.3039V16.304V16.304V16.304V16.304V16.304L1 16.304H0.85L0.85 16.3043L0.85075 16.6261L0.850751 16.6264C0.851799 16.8653 1.01319 17.073 1.24458 17.1331C1.28877 17.1448 1.33317 17.15 1.37575 17.15C1.56387 17.15 1.74124 17.0482 1.83474 16.8791C3.53407 13.8083 6.77031 11.9007 10.2797 11.9007ZM17.8598 8.75069L12.4 13.9077V11.3757C12.4 11.0859 12.1648 10.8507 11.875 10.8507H10.2797C7.05452 10.8507 4.03785 12.3042 2.02616 14.7399C2.77577 10.1587 6.76259 6.65067 11.5525 6.65067H11.875C12.1648 6.65067 12.4 6.41551 12.4 6.12567V3.59366L17.8598 8.75069Z" fill="#9BB5CC" stroke="#9BB5CC" stroke-width="0.3"/>
</svg>
