<svg width="24" height="24" viewBox="0 0 24 24" fill="none" xmlns="http://www.w3.org/2000/svg">
<path d="M9.5 18H6.2C5.0799 18 4.51984 18 4.09202 17.782C3.71569 17.5903 3.40973 17.2843 3.21799 16.908C3 16.4802 3 15.9201 3 14.8V6.2C3 5.07989 3 4.51984 3.21799 4.09202C3.40973 3.71569 3.71569 3.40973 4.09202 3.21799C4.51984 3 5.0799 3 6.2 3H14.8C15.9201 3 16.4802 3 16.908 3.21799C17.2843 3.40973 17.5903 3.71569 17.782 4.09202C18 4.51984 18 5.07989 18 6.2V9.5" stroke="#FFE600" stroke-width="2" stroke-linecap="round" stroke-linejoin="round"/>
<circle cx="15.5" cy="15.5" r="6.5" stroke="#FFE600" stroke-width="2" stroke-linecap="round" stroke-linejoin="round"/>
<path d="M13.5 15.5L15 17L18.5 13.5" stroke="#FFE600" stroke-width="2" stroke-linecap="round" stroke-linejoin="round"/>
</svg>
