<svg width="18" height="18" viewBox="0 0 18 18" fill="none" xmlns="http://www.w3.org/2000/svg">
<circle cx="9" cy="9" r="9" fill="#FFB800"/>
<path d="M8.42254 10.9514C8.32864 10.9514 8.24883 10.92 8.1831 10.8571C8.11737 10.7838 8.08451 10.6895 8.08451 10.5743V3.37714C8.08451 3.27238 8.11737 3.18333 8.1831 3.11C8.24883 3.03667 8.32864 3 8.42254 3H9.56338C9.66667 3 9.74648 3.03667 9.80282 3.11C9.86854 3.18333 9.90141 3.27238 9.90141 3.37714V10.5743C9.90141 10.6895 9.86854 10.7838 9.80282 10.8571C9.74648 10.92 9.66667 10.9514 9.56338 10.9514H8.42254ZM8.33803 14C8.24413 14 8.16432 13.9633 8.09859 13.89C8.03286 13.8167 8 13.7276 8 13.6229V12.1614C8 12.0462 8.03286 11.9519 8.09859 11.8786C8.16432 11.8052 8.24413 11.7686 8.33803 11.7686H9.64789C9.75117 11.7686 9.83568 11.8052 9.90141 11.8786C9.96714 11.9519 10 12.0462 10 12.1614V13.6229C10 13.7276 9.96714 13.8167 9.90141 13.89C9.83568 13.9633 9.75117 14 9.64789 14H8.33803Z" fill="white"/>
</svg>
