<svg width="16" height="16" viewBox="0 0 16 16" fill="none" xmlns="http://www.w3.org/2000/svg">
<path d="M13.25 2H10.5V1.5C10.5 0.671562 9.82844 0 9 0H7C6.17156 0 5.5 0.671562 5.5 1.5V2H2.75C2.05966 2 1.5 2.55966 1.5 3.25V4.25C1.5 4.52616 1.72384 4.75 2 4.75H14C14.2762 4.75 14.5 4.52616 14.5 4.25V3.25C14.5 2.55966 13.9403 2 13.25 2ZM6.5 1.5C6.5 1.22438 6.72437 1 7 1H9C9.27563 1 9.5 1.22438 9.5 1.5V2H6.5V1.5Z" fill="#FF6B6B"/>
<path d="M2.44897 5.75C2.35975 5.75 2.28866 5.82456 2.29291 5.91369L2.70541 14.5712C2.74353 15.3725 3.40166 16 4.20353 16H11.7967C12.5985 16 13.2567 15.3725 13.2948 14.5712L13.7073 5.91369C13.7115 5.82456 13.6404 5.75 13.5512 5.75H2.44897ZM10.0001 7C10.0001 6.72375 10.2238 6.5 10.5001 6.5C10.7763 6.5 11.0001 6.72375 11.0001 7V13.5C11.0001 13.7762 10.7763 14 10.5001 14C10.2238 14 10.0001 13.7762 10.0001 13.5V7ZM7.50009 7C7.50009 6.72375 7.72384 6.5 8.00009 6.5C8.27634 6.5 8.50009 6.72375 8.50009 7V13.5C8.50009 13.7762 8.27634 14 8.00009 14C7.72384 14 7.50009 13.7762 7.50009 13.5V7ZM5.00009 7C5.00009 6.72375 5.22384 6.5 5.50009 6.5C5.77634 6.5 6.00009 6.72375 6.00009 7V13.5C6.00009 13.7762 5.77634 14 5.50009 14C5.22384 14 5.00009 13.7762 5.00009 13.5V7Z" fill="#FF6B6B"/>
</svg>
