<svg width="20" height="20" viewBox="0 0 20 20" fill="none" xmlns="http://www.w3.org/2000/svg">
<path d="M4.40837 18.8895L4.40828 18.8895C4.06477 18.6297 3.90614 18.185 3.99884 17.7578L3.99885 17.7578L5.14461 12.4912L1.26005 8.93637C1.26003 8.93635 1.26001 8.93633 1.25998 8.93631C0.941891 8.64649 0.821743 8.18938 0.951472 7.77228L0.951488 7.77223C1.08135 7.35548 1.43622 7.05691 1.86012 7.01601L1.86029 7.016L6.9962 6.52945L9.02765 1.56872L9.02769 1.5686C9.19376 1.16451 9.57398 0.9 9.99994 0.9C10.4259 0.9 10.8061 1.16446 10.9722 1.56766L10.9722 1.56786L13.0037 6.52945L18.1387 7.01599C18.5637 7.05595 18.9186 7.35561 19.0484 7.77223C19.1781 8.18854 19.0588 8.64647 18.7405 8.93637L14.856 12.4905L16.0017 17.7569L16.0017 17.757C16.0945 18.185 15.9358 18.6297 15.5923 18.8888C15.2489 19.1484 14.7898 19.1686 14.4275 18.9415L14.4276 18.9415L14.4805 18.8567L14.4274 18.9414L4.40837 18.8895ZM4.40837 18.8895C4.59268 19.0286 4.80962 19.1 5.02878 19.1C5.21804 19.1 5.40502 19.0467 5.572 18.9433L5.57226 18.9431L9.99995 16.1805L4.40837 18.8895ZM10.5431 14.9156L10.5434 14.9158L14.571 17.4294L13.5285 12.6372C13.4431 12.2457 13.5701 11.8359 13.8618 11.5694L10.5431 14.9156ZM10.5431 14.9156C10.376 14.8121 10.1892 14.7591 9.99994 14.7591C9.81073 14.7591 9.62375 14.8121 9.45671 14.9156L9.45645 14.9158L5.42882 17.4287L6.47052 12.6366C6.47053 12.6366 6.47054 12.6366 6.47054 12.6365C6.55668 12.2441 6.42975 11.835 6.1372 11.5677L2.59547 8.3264L7.27783 7.88276L7.27791 7.88276C7.66887 7.8454 8.00374 7.58856 8.1537 7.21816C8.15373 7.2181 8.15375 7.21804 8.15378 7.21798L9.99989 2.70953L11.8438 7.2174C11.9952 7.58995 12.33 7.84696 12.722 7.88434L12.722 7.88434L17.4037 8.32797L13.8618 11.5693L10.5431 14.9156Z" fill="#9BB5CC" stroke="#9BB5CC" stroke-width="0.2"/>
</svg>
