<svg width="24" height="24" viewBox="0 0 24 24" fill="none" xmlns="http://www.w3.org/2000/svg">
<path d="M3 8V16.8C3 17.9201 3 18.4802 3.21799 18.908C3.40973 19.2843 3.71569 19.5903 4.09202 19.782C4.51984 20 5.07989 20 6.2 20H17.8C18.9201 20 19.4802 20 19.908 19.782C20.2843 19.5903 20.5903 19.2843 20.782 18.908C21 18.4802 21 17.9201 21 16.8V10.7C21 10.0489 21 9.72337 20.9249 9.45712C20.736 8.78739 20.2126 8.26397 19.5429 8.07509C19.2766 8 18.9511 8 18.3 8M3 8V7.2C3 6.0799 3 5.51984 3.21799 5.09202C3.40973 4.71569 3.71569 4.40973 4.09202 4.21799C4.51984 4 5.07989 4 6.2 4H15.1C16.2201 4 16.7802 4 17.208 4.21799C17.5843 4.40973 17.8903 4.71569 18.082 5.09202C18.3 5.51984 18.3 6.0799 18.3 7.2V8M3 8H18.3M21 12H19C17.8954 12 17 12.8954 17 14C17 15.1046 17.8954 16 19 16H21V12Z" stroke="#8E6EAC" stroke-width="2" stroke-linecap="round" stroke-linejoin="round"/>
</svg>
